<?xml version="1.0" encoding="UTF-8" standalone="no"?><!-- Generator: Gravit.io --><svg xmlns="http://www.w3.org/2000/svg" xmlns:xlink="http://www.w3.org/1999/xlink" style="isolation:isolate" viewBox="0 0 300 320" width="300pt" height="320pt"><defs><clipPath id="_clipPath_Ql2B64F4Sa5UbcQ0u0Dz3jxpj3R8oVOT"><rect width="300" height="320"/></clipPath></defs><g clip-path="url(#_clipPath_Ql2B64F4Sa5UbcQ0u0Dz3jxpj3R8oVOT)"><path d=" M 110.509 69.926 Q 87.641 66.802 93.999 80.189 Q 93.665 138.643 93.999 146.229 L 93.999 169.878 Q 94.892 176.795 119.88 174.34 L 169.856 178.356 L 175.211 87.774 L 175.211 82.866 Q 185.697 65.24 148.884 71.711 L 110.509 69.926 Z " fill="rgb(189,180,180)" vector-effect="non-scaling-stroke" stroke-width="1" stroke="rgb(0,0,0)" stroke-linejoin="miter" stroke-linecap="square" stroke-miterlimit="3"/><linearGradient id="_lgradient_0" x1="-3.6865646294605656" y1="0.6303058603782401" x2="1.089965397923875" y2="-0.07431494491966095" gradientTransform="matrix(39.81,0,0,35.003,208.19,17.967)" gradientUnits="userSpaceOnUse"><stop offset="0%" stop-opacity="1" style="stop-color:rgb(0,0,0)"/><stop offset="100%" stop-opacity="1" style="stop-color:rgb(255,255,255)"/></linearGradient><path d=" M 216.263 50.292 Q 217.601 46.425 212.693 42.26 Q 201.835 24.263 217.155 34.675 L 218.494 36.906 Q 217.75 19.652 222.064 19.503 Q 225.187 18.927 225.187 30.817 L 226.972 28.428 Q 228.311 16.528 230.542 18.165 Q 235.004 17.737 232.327 30.817 L 232.327 32.444 Q 236.454 21.511 237.235 20.842 C 238.016 20.173 238.462 20.173 239.912 19.949 C 241.363 19.726 242.947 22.742 239.02 32.444 L 239.02 33.782 Q 245.155 22.014 246.606 23.799 Q 250.51 23.903 243.482 36.372 L 235.896 52.97 Q 225.522 47.169 216.263 50.292 Z " fill="url(#_lgradient_0)" vector-effect="non-scaling-stroke" stroke-width="1" stroke="rgb(0,0,0)" stroke-linejoin="miter" stroke-linecap="square" stroke-miterlimit="3"/><path d=" M 232.327 36.372 Q 240.47 38.691 241.697 40.029" fill="none" vector-effect="non-scaling-stroke" stroke-width="1" stroke="rgb(0,0,0)" stroke-linejoin="miter" stroke-linecap="square" stroke-miterlimit="3"/><path d=" M 230.542 44.045 Q 226.303 36.906 218.494 36.906" fill="none" vector-effect="non-scaling-stroke" stroke-width="1" stroke="rgb(0,0,0)" stroke-linejoin="miter" stroke-linecap="square" stroke-miterlimit="3"/><linearGradient id="_lgradient_1" x1="-2.159475634083784" y1="-0.2170980757745703" x2="0.9525220860644055" y2="0.23737454661985985" gradientTransform="matrix(41.134,0,0,24.361,195.737,244.396)" gradientUnits="userSpaceOnUse"><stop offset="0%" stop-opacity="1" style="stop-color:rgb(0,0,0)"/><stop offset="100%" stop-opacity="1" style="stop-color:rgb(255,255,255)"/></linearGradient><path d=" M 195.737 260.906 Q 204.066 261.204 206.892 263.138 Q 228.906 269.98 235.896 268.492 Q 240.554 256.779 222.956 246.628 Q 206.084 253.488 200.199 244.396 L 195.737 260.906 Z " fill="url(#_lgradient_1)" vector-effect="non-scaling-stroke" stroke-width="1" stroke="rgb(0,0,0)" stroke-linejoin="miter" stroke-linecap="square" stroke-miterlimit="3"/><path d=" M 197.076 255.998 Q 212.944 261.353 218.94 261.799 Q 235.255 262.97 236.789 264.03 Q 236.817 266.205 235.896 268.492 Q 230.542 269.329 225.187 268.046 Q 211.243 264.56 210.016 264.03 L 206.892 263.138 Q 203.769 261.074 195.737 260.906 L 197.076 255.998 Z " fill="rgb(136,131,131)"/><linearGradient id="_lgradient_2" x1="-2.159475634083784" y1="-0.2170980757745703" x2="0.9525220860644055" y2="0.23737454661985985" gradientTransform="matrix(45.853,0,0,30.177,165.542,278.797)" gradientUnits="userSpaceOnUse"><stop offset="0%" stop-opacity="1" style="stop-color:rgb(0,0,0)"/><stop offset="100%" stop-opacity="1" style="stop-color:rgb(255,255,255)"/></linearGradient><path d=" M 166.733 278.797 Q 165.627 284.705 165.548 288.564 C 165.435 294.037 166.871 296.42 169.856 295.711 Q 176.884 297.385 177.888 299.727 L 194.844 306.867 Q 209.012 311.998 211.354 304.636 Q 212.247 288.46 193.06 280.986 L 188.151 280.094 Q 185.139 282.213 173.426 282.771 L 166.733 278.797 Z " fill="url(#_lgradient_2)" vector-effect="non-scaling-stroke" stroke-width="1" stroke="rgb(0,0,0)" stroke-linejoin="miter" stroke-linecap="square" stroke-miterlimit="3"/><path d=" M 165.548 287.679 Q 177.107 292.142 183.689 296.604 Q 202.095 306.309 210.462 305.974 Q 207.952 311.259 195.737 307.313 L 177.888 299.727 Q 176.522 297.092 169.856 295.711 Q 167.702 296.248 166.733 294.819 Q 165.144 292.386 165.548 287.679 Z " fill="rgb(136,131,131)"/><linearGradient id="_lgradient_3" x1="-1.429153605015674" y1="0.2903380868450565" x2="0.7959247648902807" y2="0.05383752603749503" gradientTransform="matrix(73.428,0,0,94.363,166.733,155.024)" gradientUnits="userSpaceOnUse"><stop offset="0%" stop-opacity="1" style="stop-color:rgb(0,0,0)"/><stop offset="100%" stop-opacity="1" style="stop-color:rgb(255,255,255)"/></linearGradient><path d=" M 200.199 244.396 Q 205.554 253.098 222.956 246.628 L 238.127 196.651 Q 244.151 179.695 232.327 166.309 Q 223.625 152.476 210.908 155.599 Q 193.283 157.83 174.765 166.309 Q 175.657 171.217 166.733 172.109 L 169.856 174.34 Q 185.92 171.886 201.984 186.388 Q 209.57 192.412 210.908 196.651 Q 213.92 201.894 212.693 207.36 Q 212.024 213.496 209.57 220.301 Q 207.896 231.568 201.984 241.719 L 200.199 244.396 Z " fill="url(#_lgradient_3)" vector-effect="non-scaling-stroke" stroke-width="1" stroke="rgb(0,0,0)" stroke-linejoin="miter" stroke-linecap="square" stroke-miterlimit="3"/><linearGradient id="_lgradient_4" x1="-2.159475634083784" y1="-0.2170980757745703" x2="0.9525220860644055" y2="0.23737454661985985" gradientTransform="matrix(101.674,0,0,116.035,111.466,166.309)" gradientUnits="userSpaceOnUse"><stop offset="0%" stop-opacity="1" style="stop-color:rgb(0,0,0)"/><stop offset="100%" stop-opacity="1" style="stop-color:rgb(255,255,255)"/></linearGradient><path d=" M 111.848 166.309 Q 109.171 201.56 125.235 205.129 Q 136.725 212.938 161.378 213.161 Q 172.868 217.066 173.426 220.747 Q 170.079 232.237 169.856 244.396 L 166.733 268.046 Q 164.284 275.133 166.897 278.797 C 168.171 280.583 170.347 281.759 173.426 282.325 Q 185.139 282.548 188.597 280.094 L 193.506 270.277 L 200.199 244.396 Q 208.677 231.122 209.57 220.747 Q 216.709 200.779 209.57 193.528 Q 187.147 171.105 169.856 174.34 L 166.733 172.109 L 148.884 174.34 Q 139.067 172.667 130.589 172.109 Q 123.338 173.894 111.848 166.309 Z " fill="url(#_lgradient_4)" vector-effect="non-scaling-stroke" stroke-width="1" stroke="rgb(0,0,0)" stroke-linejoin="miter" stroke-linecap="square" stroke-miterlimit="3"/><path d=" M 173.426 220.301 Q 193.617 192.524 210.908 195.759 Q 214.032 201.671 212.693 207.36 Q 204.327 205.129 192.613 213.161 Q 179.785 226.102 173.426 220.301 Z " fill="rgb(136,131,131)"/><path d=" M 225.187 239.934 Q 215.51 244.926 203.323 239.488 L 200.199 244.396 Q 205.08 252.93 222.956 246.628 L 225.187 239.934 Z " fill="rgb(136,131,131)"/><path d=" M 210.016 193.974 Q 220.13 171.663 232.327 166.309 Q 228.757 160.062 224.295 157.83 Q 210.759 167.796 204.661 188.173 Q 208.826 192.933 210.016 193.974 Z " fill="rgb(136,131,131)"/><path d=" M 193.952 268.492 Q 188.709 276.189 165.84 270.277 Q 163.498 278.867 172.534 282.771 Q 187.586 282.109 189.044 280.094 Q 190.501 278.079 193.952 268.492 Z " fill="rgb(136,131,131)"/><linearGradient id="_lgradient_5" x1="-0.30638968874262995" y1="1.2043767600459452" x2="0.5266008501302619" y2="0.5889792258347003" gradientTransform="matrix(197.228,0,0,125.242,40.9,49.098)" gradientUnits="userSpaceOnUse"><stop offset="0%" stop-opacity="1" style="stop-color:rgb(0,0,0)"/><stop offset="65.41666666666667%" stop-opacity="1" style="stop-color:rgb(202,202,202)"/><stop offset="97.5%" stop-opacity="1" style="stop-color:rgb(225,225,225)"/></linearGradient><path d=" M 111.848 166.309 Q 111.848 135.073 105.155 122.579 L 71.689 107.854 Q 54.732 107.854 40.9 56.539 Q 47.147 46.722 64.549 50.292 Q 62.987 64.125 77.936 78.404 L 82.398 82.866 Q 94.223 82.197 102.924 78.404 L 117.649 78.404 Q 138.844 93.575 160.486 78.404 Q 160.814 79.296 166.897 81.527 L 177.888 80.189 Q 188.151 84.874 198.414 82.866 L 202.43 80.189 L 214.478 62.34 L 216.263 50.292 Q 227.864 46.499 238.127 54.754 Q 238.127 62.117 235.004 69.926 L 231.434 80.189 Q 231.434 87.774 221.171 102.946 Q 208.454 110.978 202.43 114.101 L 193.952 119.01 Q 187.259 117.448 180.119 125.703 Q 178.334 135.52 176.103 144.89 Q 177.33 157.496 174.765 166.309 Q 175.763 171.217 166.897 172.109 Q 154.239 173.671 148.884 174.34 Q 134.605 172.332 131.035 172.109 Q 124.119 174.006 111.848 166.309 Z " fill="url(#_lgradient_5)" vector-effect="non-scaling-stroke" stroke-width="1" stroke="rgb(0,0,0)" stroke-linejoin="miter" stroke-linecap="square" stroke-miterlimit="3"/><path d=" M 129.697 115.886 Q 107.832 114.101 106.94 95.806 Q 106.828 85.99 115.864 82.866 L 116.757 86.436 Q 103.928 90.675 114.079 106.069 Q 119.434 112.316 129.697 110.978 L 129.697 115.886 Z " fill="rgb(181,181,86)" vector-effect="non-scaling-stroke" stroke-width="1" stroke="rgb(0,0,0)" stroke-linejoin="miter" stroke-linecap="square" stroke-miterlimit="3"/><clipPath id="_clipPath_JhyNTIWgmcBCB1tQ3L4zjMw3agiAmBod"><path d=" M 129.697 115.886 Q 107.832 114.101 106.94 95.806 Q 106.828 85.99 115.864 82.866 L 116.757 86.436 Q 103.928 90.675 114.079 106.069 Q 119.434 112.316 129.697 110.978 L 129.697 115.886 Z " fill="rgb(181,181,86)" vector-effect="non-scaling-stroke" stroke-width="1" stroke="rgb(0,0,0)" stroke-linejoin="miter" stroke-linecap="square" stroke-miterlimit="3"/></clipPath><g clip-path="url(#_clipPath_JhyNTIWgmcBCB1tQ3L4zjMw3agiAmBod)"><rect x="134.574" y="113.655" width="9.466" height="1.339" transform="matrix(1,0,0,1,0,0)" fill="rgb(242,51,51)"/></g><path d=" M 129.697 115.886 Q 107.832 114.101 106.94 95.806 Q 106.828 85.99 115.864 82.866 L 116.757 86.436 Q 103.928 90.675 114.079 106.069 Q 119.434 112.316 129.697 110.978 L 129.697 115.886 Z " fill="transparent" vector-effect="non-scaling-stroke" stroke-width="1" stroke="rgb(0,0,0)" stroke-linejoin="miter" stroke-linecap="square" stroke-miterlimit="3"/><linearGradient id="_lgradient_6" x1="-2.2248387615124146" y1="1.2004076618223185" x2="0.7021658038994678" y2="0.12638525555805047" gradientTransform="matrix(72.528,0,0,82.463,101.946,9)" gradientUnits="userSpaceOnUse"><stop offset="0%" stop-opacity="1" style="stop-color:rgb(0,0,0)"/><stop offset="100%" stop-opacity="1" style="stop-color:rgb(255,255,255)"/></linearGradient><path d=" M 115.864 74.388 Q 113.187 75.727 106.047 62.34 Q 100.47 46.053 102.478 38.244 Q 104.486 25.081 110.063 22.181 Q 135.275 0.762 159.147 14.149 Q 188.151 45.161 162.271 76.619 Q 168.071 81.974 157.362 86.436 Q 130.366 98.037 114.079 82.866 Q 112.294 80.189 117.649 78.404 L 115.864 74.388 Z " fill="url(#_lgradient_6)" vector-effect="non-scaling-stroke" stroke-width="1" stroke="rgb(0,0,0)" stroke-linejoin="miter" stroke-linecap="square" stroke-miterlimit="3"/><path d=" M 110.509 39.137 Q 108.139 38.917 106.197 38.905 C 103.103 38.886 100.822 39.26 99.354 40.029 L 99.354 54.754 Q 99.205 62.786 106.494 61.448 L 111.848 60.555 L 110.509 39.137 Z " fill="rgb(189,180,180)" vector-effect="non-scaling-stroke" stroke-width="1" stroke="rgb(0,0,0)" stroke-linejoin="miter" stroke-linecap="square" stroke-miterlimit="3"/><path d=" M 106.94 52.523 Q 105.75 45.384 106.047 39.137" fill="none" vector-effect="non-scaling-stroke" stroke-width="1" stroke="rgb(0,0,0)" stroke-linejoin="miter" stroke-linecap="square" stroke-miterlimit="3"/><path d=" M 114.079 40.029 Q 147.824 25.025 172.534 37.798 Q 179.338 55.479 162.271 76.619 Q 149.591 87.105 135.349 85.99 Q 110.398 75.336 114.079 40.029 Z " fill="rgb(155,189,232)" vector-effect="non-scaling-stroke" stroke-width="1" stroke="rgb(0,0,0)" stroke-linejoin="miter" stroke-linecap="square" stroke-miterlimit="3"/><path d=" M 119.88 55.647 L 117.649 45.384 L 135.349 40.922 Q 118.653 45.997 119.88 55.647 Z " fill="rgb(236,230,230)"/><path d=" M 71.242 107.854 Q 68.565 96.922 82.398 82.866 L 78.382 79.296 Q 65.888 89.559 63.657 104.731 Q 68.677 108.412 71.242 107.854 Z " fill="rgb(136,131,131)"/><path d=" M 198.414 82.866 Q 212.247 94.133 214.032 107.408 L 221.171 102.946 Q 218.578 90.48 202.43 80.189 L 198.414 82.866 Z " fill="rgb(136,131,131)" vector-effect="non-scaling-stroke" stroke-width="1" stroke="rgb(0,0,0)" stroke-linejoin="miter" stroke-linecap="square" stroke-miterlimit="3"/><mask id="_mask_mgOxhYaMFKi3kJRLzs1eSHZiVEmxjqBb"><path d=" M 135.349 90.898 C 127.961 90.649 120.871 88.659 114.079 82.866 Q 113.856 95.583 122.111 97.145 Q 144.422 100.938 160.486 94.021 Q 166.371 89.782 165.548 82.866 L 164.055 80.189 Q 149.022 91.358 135.349 90.898 Z " fill="white" stroke="none"/></mask><path d=" M 135.349 90.898 C 127.961 90.649 120.871 88.659 114.079 82.866 Q 113.856 95.583 122.111 97.145 Q 144.422 100.938 160.486 94.021 Q 166.371 89.782 165.548 82.866 L 164.055 80.189 Q 149.022 91.358 135.349 90.898 Z " fill="rgb(136,131,131)"/><path d=" M 135.349 90.898 C 127.961 90.649 120.871 88.659 114.079 82.866 Q 113.856 95.583 122.111 97.145 Q 144.422 100.938 160.486 94.021 Q 166.371 89.782 165.548 82.866 L 164.055 80.189 Q 149.022 91.358 135.349 90.898 Z " fill="rgb(136,131,131)" mask="url(#_mask_mgOxhYaMFKi3kJRLzs1eSHZiVEmxjqBb)" vector-effect="non-scaling-stroke" stroke-width="2" stroke="rgb(0,0,0)" stroke-linejoin="miter" stroke-linecap="square" stroke-miterlimit="3"/><linearGradient id="_lgradient_7" x1="-3.6865646294605656" y1="0.63030586037824" x2="1.0000000000000022" y2="-1.5543122344752192e-15" gradientTransform="matrix(40.47,0,0,36.397,29.422,19.25)" gradientUnits="userSpaceOnUse"><stop offset="0%" stop-opacity="1" style="stop-color:rgb(0,0,0)"/><stop offset="100%" stop-opacity="1" style="stop-color:rgb(255,255,255)"/></linearGradient><mask id="_mask_GlQkyegJ2pmIpIJwugKfR9WOswruI1HA"><path d=" M 42.238 55.647 L 32.868 36.906 Q 30.442 32.414 29.744 29.803 C 28.539 25.295 30.87 23.192 34.206 27.089 C 35.326 28.396 36.146 31.975 37.776 34.228 L 40.007 36.013 Q 36.763 29.153 35.991 25.75 C 34.72 20.144 37.483 20.083 41.346 25.563 C 42.748 27.553 46.651 37.212 46.254 33.336 C 45.871 29.598 45.051 27.046 44.916 24.858 C 44.515 18.388 46.888 17.15 49.824 23.073 C 50.787 25.015 51.584 28.786 52.948 31.997 Q 52.041 26.852 52.948 23.799 C 54.831 17.452 58.414 19.726 59.641 26.197 C 59.348 29.174 60.957 32.256 61.426 36.013 Q 64.109 31.788 65.888 30.817 C 69.751 29.098 70.878 30.95 69.011 36.372 C 67.187 37.561 65.532 42.84 64.549 44.938 L 62.318 50.292 Q 47.258 50.181 42.238 55.647 Z " fill="white" stroke="none"/></mask><path d=" M 42.238 55.647 L 32.868 36.906 Q 30.442 32.414 29.744 29.803 C 28.539 25.295 30.87 23.192 34.206 27.089 C 35.326 28.396 36.146 31.975 37.776 34.228 L 40.007 36.013 Q 36.763 29.153 35.991 25.75 C 34.72 20.144 37.483 20.083 41.346 25.563 C 42.748 27.553 46.651 37.212 46.254 33.336 C 45.871 29.598 45.051 27.046 44.916 24.858 C 44.515 18.388 46.888 17.15 49.824 23.073 C 50.787 25.015 51.584 28.786 52.948 31.997 Q 52.041 26.852 52.948 23.799 C 54.831 17.452 58.414 19.726 59.641 26.197 C 59.348 29.174 60.957 32.256 61.426 36.013 Q 64.109 31.788 65.888 30.817 C 69.751 29.098 70.878 30.95 69.011 36.372 C 67.187 37.561 65.532 42.84 64.549 44.938 L 62.318 50.292 Q 47.258 50.181 42.238 55.647 Z " fill="url(#_lgradient_7)"/><path d=" M 42.238 55.647 L 32.868 36.906 Q 30.442 32.414 29.744 29.803 C 28.539 25.295 30.87 23.192 34.206 27.089 C 35.326 28.396 36.146 31.975 37.776 34.228 L 40.007 36.013 Q 36.763 29.153 35.991 25.75 C 34.72 20.144 37.483 20.083 41.346 25.563 C 42.748 27.553 46.651 37.212 46.254 33.336 C 45.871 29.598 45.051 27.046 44.916 24.858 C 44.515 18.388 46.888 17.15 49.824 23.073 C 50.787 25.015 51.584 28.786 52.948 31.997 Q 52.041 26.852 52.948 23.799 C 54.831 17.452 58.414 19.726 59.641 26.197 C 59.348 29.174 60.957 32.256 61.426 36.013 Q 64.109 31.788 65.888 30.817 C 69.751 29.098 70.878 30.95 69.011 36.372 C 67.187 37.561 65.532 42.84 64.549 44.938 L 62.318 50.292 Q 47.258 50.181 42.238 55.647 Z " fill="url(#_lgradient_7)" mask="url(#_mask_GlQkyegJ2pmIpIJwugKfR9WOswruI1HA)" vector-effect="non-scaling-stroke" stroke-width="2" stroke="rgb(0,0,0)" stroke-linejoin="miter" stroke-linecap="square" stroke-miterlimit="3"/><path d=" M 37.776 42.26 Q 41.457 38.691 46.254 38.244" fill="none" vector-effect="non-scaling-stroke" stroke-width="1" stroke="rgb(0,0,0)" stroke-linejoin="miter" stroke-linecap="square" stroke-miterlimit="3"/><path d=" M 59.195 36.906 Q 53.617 38.356 48.932 44.045" fill="none" vector-effect="non-scaling-stroke" stroke-width="1" stroke="rgb(0,0,0)" stroke-linejoin="miter" stroke-linecap="square" stroke-miterlimit="3"/><linearGradient id="_lgradient_8" x1="0" y1="0.5" x2="-0.46994725559930317" y2="1.2454873646209386" gradientTransform="matrix(41.303,0,0,38.626,127.466,105.037)" gradientUnits="userSpaceOnUse"><stop offset="0%" stop-opacity="1" style="stop-color:rgb(51,49,49)"/><stop offset="100%" stop-opacity="1" style="stop-color:rgb(0,0,0)"/></linearGradient><path d=" M 127.912 106.069 L 128.071 115.442 Q 128.004 136.209 127.466 141.767 Q 163.47 145.559 165.548 141.767 C 167.625 137.974 170.854 124.253 166.897 106.069 Q 129.529 104.006 127.912 106.069 Z " fill="url(#_lgradient_8)" vector-effect="non-scaling-stroke" stroke-width="1" stroke="rgb(0,0,0)" stroke-linejoin="miter" stroke-linecap="square" stroke-miterlimit="3"/><rect x="153.612" y="111.424" width="8.69" height="4.462" transform="matrix(1,0,0,1,0,0)" fill="rgb(242,51,51)"/><rect x="153.612" y="119.888" width="8.69" height="4.462" transform="matrix(1,0,0,1,0,0)" fill="rgb(51,80,242)"/><rect x="157.957" y="128.352" width="4.345" height="10.737" transform="matrix(1,0,0,1,0,0)" fill="rgb(218,219,227)"/><rect x="150.223" y="128.352" width="4.345" height="10.737" transform="matrix(1,0,0,1,0,0)" fill="rgb(218,219,227)"/><rect x="142.488" y="128.352" width="4.345" height="10.737" transform="matrix(1,0,0,1,0,0)" fill="rgb(218,219,227)"/><rect x="133.357" y="112.749" width="11.484" height="3.137" transform="matrix(1,0,0,1,0,0)" fill="rgb(218,219,227)"/><rect x="133.357" y="116.751" width="11.484" height="3.137" transform="matrix(1,0,0,1,0,0)" fill="rgb(218,219,227)"/><rect x="134.574" y="113.655" width="9.466" height="1.339" transform="matrix(1,0,0,1,0,0)" fill="rgb(242,51,51)"/><rect x="134.366" y="117.65" width="9.466" height="1.339" transform="matrix(1,0,0,1,0,0)" fill="rgb(242,51,51)"/><rect x="133.177" y="121.213" width="11.484" height="3.137" transform="matrix(1,0,0,1,0,0)" fill="rgb(218,219,227)"/><rect x="134.754" y="128.352" width="4.345" height="10.737" transform="matrix(1,0,0,1,0,0)" fill="rgb(242,51,51)"/><rect x="134.186" y="122.112" width="9.466" height="1.339" transform="matrix(1,0,0,1,0,0)" fill="rgb(242,51,51)"/></g></svg>