<?xml version="1.0" encoding="UTF-8" standalone="no"?><!-- Generator: Gravit.io --><svg xmlns="http://www.w3.org/2000/svg" xmlns:xlink="http://www.w3.org/1999/xlink" style="isolation:isolate" viewBox="510.209 455 217.791 243" width="217.791pt" height="243pt"><defs><clipPath id="_clipPath_k12bhvVwMzVLC3xZsYZzjrgz4kjsF6su"><rect x="510.209" y="455" width="217.791" height="243"/></clipPath></defs><g clip-path="url(#_clipPath_k12bhvVwMzVLC3xZsYZzjrgz4kjsF6su)"><g><linearGradient id="_lgradient_0" x1="-0.4517268053910339" y1="0.8943452380952489" x2="2.0706210371196248" y2="-0.0767793819655419" gradientTransform="matrix(73.791,0,0,84,510.209,546)" gradientUnits="userSpaceOnUse"><stop offset="0%" stop-opacity="1" style="stop-color:rgb(65,26,0)"/><stop offset="33.75%" stop-opacity="1" style="stop-color:rgb(116,82,31)"/><stop offset="97.91666666666666%" stop-opacity="1" style="stop-color:rgb(220,195,93)"/></linearGradient><path d=" M 551.425 575.903 L 555.85 570.096 L 574.209 546 L 584 546 L 522.209 628 L 511.732 628 L 510.209 630 L 551.425 575.903 Z " fill="url(#_lgradient_0)"/><linearGradient id="_lgradient_1" x1="-3.2208567891570032" y1="0.7500000000000566" x2="10.987653849140877" y2="-4.447568389058048" gradientTransform="matrix(10,0,0,14,522.209,614)" gradientUnits="userSpaceOnUse"><stop offset="0%" stop-opacity="1" style="stop-color:rgb(65,26,0)"/><stop offset="35.833333333333336%" stop-opacity="1" style="stop-color:rgb(120,86,33)"/><stop offset="97.91666666666666%" stop-opacity="1" style="stop-color:rgb(220,195,93)"/></linearGradient><rect x="522.209" y="614" width="10" height="14" transform="matrix(1,0,0,1,0,0)" fill="url(#_lgradient_1)"/><linearGradient id="_lgradient_2" x1="0.5746430045179016" y1="5.850000000000001" x2="0.6593887672297615" y2="-0.43813559322034035" gradientTransform="matrix(12,0,0,30,639.104,522)" gradientUnits="userSpaceOnUse"><stop offset="0%" stop-opacity="1" style="stop-color:rgb(65,26,0)"/><stop offset="38.333333333333336%" stop-opacity="1" style="stop-color:rgb(119,85,32)"/><stop offset="98.33333333333333%" stop-opacity="1" style="stop-color:rgb(220,195,93)"/></linearGradient><rect x="639.104" y="522" width="12" height="30" transform="matrix(1,0,0,1,0,0)" fill="url(#_lgradient_2)"/><linearGradient id="_lgradient_3" x1="0.5785714285714275" y1="-0.4444444444444447" x2="0.5858353510895884" y2="1.8719397363465151" gradientTransform="matrix(70,0,0,45,628,613)" gradientUnits="userSpaceOnUse"><stop offset="21.25%" stop-opacity="1" style="stop-color:rgb(65,26,0)"/><stop offset="45.416666666666664%" stop-opacity="1" style="stop-color:rgb(116,82,31)"/><stop offset="71.25%" stop-opacity="1" style="stop-color:rgb(220,195,93)"/></linearGradient><rect x="628" y="613" width="70" height="45" transform="matrix(1,0,0,1,0,0)" fill="url(#_lgradient_3)"/><g><linearGradient id="_lgradient_4" x1="0.5179487179487179" y1="0.10000000000000142" x2="0.5231200172376637" y2="0.985154061624647" gradientTransform="matrix(195,0,0,15,516,658)" gradientUnits="userSpaceOnUse"><stop offset="0%" stop-opacity="1" style="stop-color:rgb(65,26,0)"/><stop offset="99.16666666666667%" stop-opacity="1" style="stop-color:rgb(220,195,93)"/></linearGradient><rect x="516" y="658" width="195" height="15" transform="matrix(1,0,0,1,0,0)" fill="url(#_lgradient_4)"/><linearGradient id="_lgradient_5" x1="1.0666666666666629" y1="-0.3866666666666703" x2="1.111864406779657" y2="1.2675706214689249" gradientTransform="matrix(15,0,0,25,683,673)" gradientUnits="userSpaceOnUse"><stop offset="0%" stop-opacity="1" style="stop-color:rgb(65,26,0)"/><stop offset="98.33333333333333%" stop-opacity="1" style="stop-color:rgb(220,195,93)"/></linearGradient><rect x="683" y="673" width="15" height="25" transform="matrix(1,0,0,1,0,0)" fill="url(#_lgradient_5)"/><linearGradient id="_lgradient_6" x1="1.0666666666666629" y1="-0.3866666666666703" x2="1.111864406779657" y2="1.2675706214689249" gradientTransform="matrix(15,0,0,25,606,673)" gradientUnits="userSpaceOnUse"><stop offset="0%" stop-opacity="1" style="stop-color:rgb(65,26,0)"/><stop offset="98.33333333333333%" stop-opacity="1" style="stop-color:rgb(220,195,93)"/></linearGradient><rect x="606" y="673" width="15" height="25" transform="matrix(1,0,0,1,0,0)" fill="url(#_lgradient_6)"/><linearGradient id="_lgradient_7" x1="1.0666666666666629" y1="-0.3866666666666703" x2="1.111864406779657" y2="1.2675706214689249" gradientTransform="matrix(15,0,0,25,528,673)" gradientUnits="userSpaceOnUse"><stop offset="0%" stop-opacity="1" style="stop-color:rgb(65,26,0)"/><stop offset="98.33333333333333%" stop-opacity="1" style="stop-color:rgb(220,195,93)"/></linearGradient><rect x="528" y="673" width="15" height="25" transform="matrix(1,0,0,1,0,0)" fill="url(#_lgradient_7)"/></g><linearGradient id="_lgradient_8" x1="0.5" y1="0" x2="0.5562587904360071" y2="6.362869198312238" gradientTransform="matrix(9,0,0,30,631.5,522)" gradientUnits="userSpaceOnUse"><stop offset="0%" stop-opacity="1" style="stop-color:rgb(65,26,0)"/><stop offset="98.75%" stop-opacity="1" style="stop-color:rgb(220,195,93)"/></linearGradient><rect x="631.5" y="522" width="9" height="30" transform="matrix(1,0,0,1,0,0)" fill="url(#_lgradient_8)"/><linearGradient id="_lgradient_9" x1="1.4061407184357948" y1="1.463414634146352" x2="-0.1155618277090229" y2="-0.2272963155163359" gradientTransform="matrix(92,0,0,82,605.104,546)" gradientUnits="userSpaceOnUse"><stop offset="0%" stop-opacity="1" style="stop-color:rgb(65,26,0)"/><stop offset="39.166666666666664%" stop-opacity="1" style="stop-color:rgb(163,133,59)"/><stop offset="97.91666666666666%" stop-opacity="1" style="stop-color:rgb(220,195,93)"/></linearGradient><rect x="605.104" y="546" width="92" height="82" transform="matrix(1,0,0.754,1,-442.336,0)" fill="url(#_lgradient_9)"/><linearGradient id="_lgradient_10" x1="0.4933333333333323" y1="-0.1611593043142151" x2="0.5546099290780134" y2="2.44903228632736" gradientTransform="matrix(100,0,0,105.642,528,552.358)" gradientUnits="userSpaceOnUse"><stop offset="0%" stop-opacity="1" style="stop-color:rgb(65,26,0)"/><stop offset="60.83333333333333%" stop-opacity="1" style="stop-color:rgb(144,112,48)"/><stop offset="86.66666666666667%" stop-opacity="1" style="stop-color:rgb(220,195,93)"/></linearGradient><path d=" M 628 617.384 L 628 658 L 528 658 L 528 620.038 L 579 552.358 L 628 617.384 Z " fill="url(#_lgradient_10)"/><linearGradient id="_lgradient_11" x1="0.8599999999999994" y1="0.8389924131243943" x2="0.12779661016949218" y2="0.025433091090495075" gradientTransform="matrix(25,0,0,25,562,617.025)" gradientUnits="userSpaceOnUse"><stop offset="0%" stop-opacity="0" style="stop-color:rgb(0,0,0)"/><stop offset="98.33333333333333%" stop-opacity="1" style="stop-color:rgb(0,0,0)"/></linearGradient><circle vector-effect="non-scaling-stroke" cx="574.5" cy="629.5251896718901" r="12.5" fill="url(#_lgradient_11)"/><linearGradient id="_lgradient_12" x1="1.0000000000000002" y1="0.9999999999999998" x2="0.1254237288135598" y2="0.022704148940060898" gradientTransform="matrix(18,0,0,15.75,639.104,634.15)" gradientUnits="userSpaceOnUse"><stop offset="0%" stop-opacity="0" style="stop-color:rgb(0,0,0)"/><stop offset="98.33333333333333%" stop-opacity="1" style="stop-color:rgb(0,0,0)"/></linearGradient><rect x="639.104" y="634.15" width="18" height="15.75" transform="matrix(1,0,0,1,0,0)" fill="url(#_lgradient_12)"/><linearGradient id="_lgradient_13" x1="0.5161906726904988" y1="1.1886807458043476" x2="0.49972558181880483" y2="-0.020147131284819597" gradientTransform="matrix(18,0,0,23.85,666.209,634.15)" gradientUnits="userSpaceOnUse"><stop offset="0%" stop-opacity="0" style="stop-color:rgb(0,0,0)"/><stop offset="98.33333333333333%" stop-opacity="1" style="stop-color:rgb(0,0,0)"/></linearGradient><rect x="666.209" y="634.15" width="18" height="23.85" transform="matrix(1,0,0,1,0,0)" fill="url(#_lgradient_13)"/></g><circle vector-effect="non-scaling-stroke" cx="625" cy="507" r="12" fill="rgb(106,103,103)"/><circle vector-effect="non-scaling-stroke" cx="637" cy="503" r="12" fill="rgb(106,103,103)"/><circle vector-effect="non-scaling-stroke" cx="653" cy="507" r="12" fill="rgb(106,103,103)"/><circle vector-effect="non-scaling-stroke" cx="631.104283945785" cy="491" r="12" fill="rgb(106,103,103)"/><circle vector-effect="non-scaling-stroke" cx="649" cy="475" r="12" fill="rgb(106,103,103)"/><circle vector-effect="non-scaling-stroke" cx="631.104283945785" cy="467" r="12" fill="rgb(106,103,103)"/><circle vector-effect="non-scaling-stroke" cx="637" cy="479" r="12" fill="rgb(106,103,103)"/><circle vector-effect="non-scaling-stroke" cx="641" cy="487" r="12" fill="rgb(106,103,103)"/></g></svg>