<?xml version="1.0" encoding="UTF-8" standalone="no"?><!-- Generator: Gravit.io --><svg xmlns="http://www.w3.org/2000/svg" xmlns:xlink="http://www.w3.org/1999/xlink" style="isolation:isolate" viewBox="0 0 460 337" width="460pt" height="337pt"><defs><clipPath id="_clipPath_Nreotw4mmhP9FloZms9EmgHz84BHIfw4"><rect width="460" height="337"/></clipPath></defs><g clip-path="url(#_clipPath_Nreotw4mmhP9FloZms9EmgHz84BHIfw4)"><g><clipPath id="_clipPath_9fsSLnRAdDBjIKpn3GozTXU8nrZOIt4Z"><rect x="361.951" y="150.136" width="75" height="150" transform="matrix(1,0,0,1,0,0)" fill="rgb(255,255,255)"/></clipPath><g clip-path="url(#_clipPath_9fsSLnRAdDBjIKpn3GozTXU8nrZOIt4Z)"><g><clipPath id="_clipPath_d6UgquWM8XPPT6lnKL4ujzJmg8Bqo1BG"><rect x="169.951" y="75.136" width="450" height="300" transform="matrix(1,0,0,1,0,0)" fill="rgb(255,255,255)"/></clipPath><g clip-path="url(#_clipPath_d6UgquWM8XPPT6lnKL4ujzJmg8Bqo1BG)"><g><g><path d=" M 426.826 182.48 C 426.166 183.667 425.598 184.873 425.053 186.098" fill="none"/><clipPath id="_clipPath_c7UwhZsRUGU03Yr5DFFUJwyl5dDnVz9S"><path d=" M 211.951 -149.864 L 511.951 -149.864 L 511.951 450.136 L 211.951 450.136 L 211.951 -149.864 Z  M 426.826 182.48 C 426.166 183.667 425.598 184.873 425.053 186.098 L 426.826 182.48 Z " fill-rule="evenodd" fill="rgb(255,255,255)"/></clipPath><g clip-path="url(#_clipPath_c7UwhZsRUGU03Yr5DFFUJwyl5dDnVz9S)"><mask id="_mask_mwwzbkhv4QSXxMPxp2Wrcg1oRAL9mm17" x="-200%" y="-200%" width="400%" height="400%"><rect x="-200%" y="-200%" width="400%" height="400%" style="fill:white;"/><path d=" M 426.826 182.48 C 426.166 183.667 425.598 184.873 425.053 186.098" fill="black" stroke="none"/></mask><path d=" M 426.826 182.48 C 426.166 183.667 425.598 184.873 425.053 186.098" fill="none"/><path d=" M 426.826 182.48 C 426.166 183.667 425.598 184.873 425.053 186.098" fill="none" mask="url(#_mask_mwwzbkhv4QSXxMPxp2Wrcg1oRAL9mm17)" vector-effect="non-scaling-stroke" stroke-width="0.104" stroke="rgb(0,0,0)" stroke-opacity="10000" stroke-linejoin="miter" stroke-linecap="square" stroke-miterlimit="3"/></g><path d=" M 427.529 182.48 C 427.225 184.379 426.58 185.168 425.654 186.464" fill="none"/><clipPath id="_clipPath_fy5s5u0xAHAeME96ZxgpINQil2TY78MA"><path d=" M 211.951 -149.864 L 511.951 -149.864 L 511.951 450.136 L 211.951 450.136 L 211.951 -149.864 Z  M 427.529 182.48 C 427.225 184.379 426.58 185.168 425.654 186.464 L 427.529 182.48 Z " fill-rule="evenodd" fill="rgb(255,255,255)"/></clipPath><g clip-path="url(#_clipPath_fy5s5u0xAHAeME96ZxgpINQil2TY78MA)"><mask id="_mask_NI5943xx1IebicoiLkU2G0fyKSxn8Ge5" x="-200%" y="-200%" width="400%" height="400%"><rect x="-200%" y="-200%" width="400%" height="400%" style="fill:white;"/><path d=" M 427.529 182.48 C 427.225 184.379 426.58 185.168 425.654 186.464" fill="black" stroke="none"/></mask><path d=" M 427.529 182.48 C 427.225 184.379 426.58 185.168 425.654 186.464" fill="none"/><path d=" M 427.529 182.48 C 427.225 184.379 426.58 185.168 425.654 186.464" fill="none" mask="url(#_mask_NI5943xx1IebicoiLkU2G0fyKSxn8Ge5)" vector-effect="non-scaling-stroke" stroke-width="0.104" stroke="rgb(0,0,0)" stroke-opacity="10000" stroke-linejoin="miter" stroke-linecap="square" stroke-miterlimit="3"/></g><path d=" M 428.23 182.48 C 428.363 184.018 427.5 185.147 426.826 186.464" fill="none"/><clipPath id="_clipPath_rA7a0ce6sExV84NIUZkKep4EJHixyjDV"><path d=" M 211.951 -149.864 L 511.951 -149.864 L 511.951 450.136 L 211.951 450.136 L 211.951 -149.864 Z  M 428.23 182.48 C 428.363 184.018 427.5 185.147 426.826 186.464 L 428.23 182.48 Z " fill-rule="evenodd" fill="rgb(255,255,255)"/></clipPath><g clip-path="url(#_clipPath_rA7a0ce6sExV84NIUZkKep4EJHixyjDV)"><mask id="_mask_ZDnC5yZ3le4F8d8IiYGQpF9vwfJFYrvM" x="-200%" y="-200%" width="400%" height="400%"><rect x="-200%" y="-200%" width="400%" height="400%" style="fill:white;"/><path d=" M 428.23 182.48 C 428.363 184.018 427.5 185.147 426.826 186.464" fill="black" stroke="none"/></mask><path d=" M 428.23 182.48 C 428.363 184.018 427.5 185.147 426.826 186.464" fill="none"/><path d=" M 428.23 182.48 C 428.363 184.018 427.5 185.147 426.826 186.464" fill="none" mask="url(#_mask_ZDnC5yZ3le4F8d8IiYGQpF9vwfJFYrvM)" vector-effect="non-scaling-stroke" stroke-width="0.104" stroke="rgb(0,0,0)" stroke-opacity="10000" stroke-linejoin="miter" stroke-linecap="square" stroke-miterlimit="3"/></g><path d=" M 390.263 205.448 Q 388.711 204.452 383.701 204.042 L 383.701 204.042 L 383.701 204.042 L 383.701 204.042 L 383.701 204.042 L 383.701 204.042" fill="none"/><clipPath id="_clipPath_rIQDjj0uqZclbnoaLOFsBjJmD99EXVwd"><path d=" M 211.951 -149.864 L 511.951 -149.864 L 511.951 450.136 L 211.951 450.136 L 211.951 -149.864 Z  M 390.263 205.448 Q 388.711 204.452 383.701 204.042 L 383.701 204.042 L 383.701 204.042 L 383.701 204.042 L 383.701 204.042 L 383.701 204.042 L 390.263 205.448 Z " fill-rule="evenodd" fill="rgb(255,255,255)"/></clipPath><g clip-path="url(#_clipPath_rIQDjj0uqZclbnoaLOFsBjJmD99EXVwd)"><mask id="_mask_NuOU8YjDOSFQ9wElrIgb5I9IC7Zl4Wra" x="-200%" y="-200%" width="400%" height="400%"><rect x="-200%" y="-200%" width="400%" height="400%" style="fill:white;"/><path d=" M 390.263 205.448 Q 388.711 204.452 383.701 204.042 L 383.701 204.042 L 383.701 204.042 L 383.701 204.042 L 383.701 204.042 L 383.701 204.042" fill="black" stroke="none"/></mask><path d=" M 390.263 205.448 Q 388.711 204.452 383.701 204.042 L 383.701 204.042 L 383.701 204.042 L 383.701 204.042 L 383.701 204.042 L 383.701 204.042" fill="none"/><path d=" M 390.263 205.448 Q 388.711 204.452 383.701 204.042 L 383.701 204.042 L 383.701 204.042 L 383.701 204.042 L 383.701 204.042 L 383.701 204.042" fill="none" mask="url(#_mask_NuOU8YjDOSFQ9wElrIgb5I9IC7Zl4Wra)" vector-effect="non-scaling-stroke" stroke-width="0.104" stroke="rgb(0,0,0)" stroke-opacity="10000" stroke-linejoin="miter" stroke-linecap="square" stroke-miterlimit="3"/></g><path d=" M 387.919 195.839 Q 388.886 202.694 387.217 204.745 L 387.217 204.745 L 387.217 204.745 L 387.217 204.745" fill="none"/><clipPath id="_clipPath_VgknP7BqUexGEp7ln1999hK7Rz6g53H1"><path d=" M 211.951 -149.864 L 511.951 -149.864 L 511.951 450.136 L 211.951 450.136 L 211.951 -149.864 Z  M 387.919 195.839 Q 388.886 202.694 387.217 204.745 L 387.217 204.745 L 387.217 204.745 L 387.217 204.745 L 387.919 195.839 Z " fill-rule="evenodd" fill="rgb(255,255,255)"/></clipPath><g clip-path="url(#_clipPath_VgknP7BqUexGEp7ln1999hK7Rz6g53H1)"><mask id="_mask_jd1tELd0kzXxr87sgQkBegzcOOIeKEZb" x="-200%" y="-200%" width="400%" height="400%"><rect x="-200%" y="-200%" width="400%" height="400%" style="fill:white;"/><path d=" M 387.919 195.839 Q 388.886 202.694 387.217 204.745 L 387.217 204.745 L 387.217 204.745 L 387.217 204.745" fill="black" stroke="none"/></mask><path d=" M 387.919 195.839 Q 388.886 202.694 387.217 204.745 L 387.217 204.745 L 387.217 204.745 L 387.217 204.745" fill="none"/><path d=" M 387.919 195.839 Q 388.886 202.694 387.217 204.745 L 387.217 204.745 L 387.217 204.745 L 387.217 204.745" fill="none" mask="url(#_mask_jd1tELd0kzXxr87sgQkBegzcOOIeKEZb)" vector-effect="non-scaling-stroke" stroke-width="0.104" stroke="rgb(0,0,0)" stroke-opacity="10000" stroke-linejoin="miter" stroke-linecap="square" stroke-miterlimit="3"/></g><path d=" M 390.263 211.776 Q 393.295 211.03 392.607 209.901 L 391.435 209.198 Q 388.564 209.462 390.263 205.448 L 390.263 205.448 L 390.263 205.448 L 390.263 205.448" fill="none"/><clipPath id="_clipPath_u0PIv4IMzh4JysHmzQwZ0dFTbYR17al8"><path d=" M 211.951 -149.864 L 511.951 -149.864 L 511.951 450.136 L 211.951 450.136 L 211.951 -149.864 Z  M 390.263 211.776 Q 393.295 211.03 392.607 209.901 L 391.435 209.198 Q 388.564 209.462 390.263 205.448 L 390.263 205.448 L 390.263 205.448 L 390.263 205.448 L 390.263 211.776 Z " fill-rule="evenodd" fill="rgb(255,255,255)"/></clipPath><g clip-path="url(#_clipPath_u0PIv4IMzh4JysHmzQwZ0dFTbYR17al8)"><mask id="_mask_A2IFyCmQm4b8NmvuoPYhEF1rGfmRKpyo" x="-200%" y="-200%" width="400%" height="400%"><rect x="-200%" y="-200%" width="400%" height="400%" style="fill:white;"/><path d=" M 390.263 211.776 Q 393.295 211.03 392.607 209.901 L 391.435 209.198 Q 388.564 209.462 390.263 205.448 L 390.263 205.448 L 390.263 205.448 L 390.263 205.448" fill="black" stroke="none"/></mask><path d=" M 390.263 211.776 Q 393.295 211.03 392.607 209.901 L 391.435 209.198 Q 388.564 209.462 390.263 205.448 L 390.263 205.448 L 390.263 205.448 L 390.263 205.448" fill="none"/><path d=" M 390.263 211.776 Q 393.295 211.03 392.607 209.901 L 391.435 209.198 Q 388.564 209.462 390.263 205.448 L 390.263 205.448 L 390.263 205.448 L 390.263 205.448" fill="none" mask="url(#_mask_A2IFyCmQm4b8NmvuoPYhEF1rGfmRKpyo)" vector-effect="non-scaling-stroke" stroke-width="0.104" stroke="rgb(0,0,0)" stroke-opacity="10000" stroke-linejoin="miter" stroke-linecap="square" stroke-miterlimit="3"/></g><path d=" M 394.717 182.48 Q 397.646 186.113 401.279 183.417 L 402.451 180.136 Q 405.263 174.511 402.451 171.23 Q 399.638 167.948 397.998 166.776 L 394.248 171.932 L 393.779 177.323 L 393.31 179.198 L 394.248 179.198 L 394.717 182.48 Z " fill="rgb(246,194,147)"/><linearGradient id="_lgradient_26" x1="0.43482994214617143" y1="0.34928583470525365" x2="0.43053815602484063" y2="1.2262164585854798" gradientTransform="matrix(12.084,0,0,19.699,387.789,164.427)" gradientUnits="userSpaceOnUse"><stop offset="0%" stop-opacity="1" style="stop-color:rgb(30,30,30)"/><stop offset="100%" stop-opacity="1" style="stop-color:rgb(0,0,0)"/></linearGradient><path d=" M 394.717 180.839 Q 396.181 178.085 395.185 174.745 Q 396.709 167.597 398.935 168.417 L 399.873 165.136 Q 396.943 163.202 392.607 166.542 Q 390.907 168.71 390.732 169.589 Q 388.915 175.8 387.919 175.448 Q 387.509 178.671 388.388 178.495 Q 389.032 182.245 387.919 182.011 Q 387.451 184.238 392.607 184.12 Q 394.717 182.89 393.779 182.48 Q 396.298 182.363 394.248 180.839" fill="url(#_lgradient_26)"/><linearGradient id="_lgradient_27" x1="0.4348621940876036" y1="0.34927137849771384" x2="0.43185535129561914" y2="1.22619538033494" gradientTransform="matrix(10.078,0,0,19.629,398.935,165.136)" gradientUnits="userSpaceOnUse"><stop offset="0%" stop-opacity="1" style="stop-color:rgb(30,30,30)"/><stop offset="100%" stop-opacity="1" style="stop-color:rgb(0,0,0)"/></linearGradient><path d=" M 409.013 183.417 Q 406.435 181.484 407.607 176.62 L 406.201 173.807 Q 404.794 165.136 399.404 165.136 L 398.935 168.417 Q 401.806 169.823 401.513 171.932 L 402.451 176.62 Q 403.154 179.198 401.279 180.136 Q 400.693 181.484 401.513 182.948 Q 402.685 184.823 404.092 184.589 Q 404.97 184.94 406.435 184.589 L 409.013 183.417 Z " fill="url(#_lgradient_27)"/><path d=" M 401.279 274.823 Q 400.224 272.567 399.873 282.089 L 398.467 289.12 Q 399.257 291.142 399.873 290.761 Q 401.367 291.054 401.982 290.761 Q 405.322 289.706 405.498 288.417 Q 405.761 279.892 404.794 280.214 Q 405.409 275.615 404.794 275.526 L 401.279 274.823 Z " fill="rgb(62,55,55)"/><path d=" M 392.138 252.089 L 390.263 255.136 L 384.638 275.526 Q 381.445 279.921 381.123 274.823 L 383.232 256.307 L 384.638 251.151 L 386.748 246.698 L 393.31 248.339 L 392.138 252.089 Z " fill="rgb(246,194,147)"/><path d=" M 401.982 246.698 L 408.076 244.823 L 409.717 245.526 L 409.013 247.87 L 408.544 252.089 Q 410.771 253.495 405.029 275.526 Q 399.638 280.917 401.279 274.823 L 401.982 257.245 L 401.982 246.698 Z " fill="rgb(246,194,147)"/><path d=" M 384.638 275.526 Q 385.663 276.113 384.638 279.511 Q 383.086 288.388 383.701 287.714 Q 383.876 291.054 382.294 290.761 L 380.185 290.761 Q 377.929 289.296 377.607 288.651 Q 376.845 289.12 378.076 285.136 L 380.888 274.823 Q 382.06 279.745 384.638 275.526 Z " fill="rgb(62,55,55)"/><path d=" M 421.904 190.448 L 421.904 190.448 C 422.809 189.026 423.124 187.03 422.607 185.995 L 422.607 185.995 C 422.089 184.961 421.984 184.12 422.373 184.12 L 422.373 184.12 C 422.761 184.12 423.418 184.6 423.84 185.19 L 423.84 185.19 C 424.065 185.505 424.57 184.985 424.969 184.03 L 425.002 183.951 C 425.232 183.398 425.883 182.8 426.454 182.618 Q 429.638 181.601 428.467 185.057 Q 427.294 188.515 424.248 194.198 L 421.904 190.448 Z " fill="rgb(246,194,147)"/><linearGradient id="_lgradient_28" x1="0.43482826670853086" y1="0.3492647058823528" x2="0.42342345594704384" y2="0.7659470363232274" gradientTransform="matrix(46.239,0,0,31.875,379.415,182.48)" gradientUnits="userSpaceOnUse"><stop offset="0%" stop-opacity="1" style="stop-color:rgb(30,30,30)"/><stop offset="100%" stop-opacity="1" style="stop-color:rgb(0,0,0)"/></linearGradient><path d=" M 415.645 196.455 C 414.688 193.287 413.462 190.381 412.763 188.807 Q 410.575 183.886 403.388 185.057 L 401.279 183.182 Q 396.826 185.448 394.717 182.48 L 391.904 185.057 Q 384.794 184.199 381.826 192.557 L 379.717 201.698 Q 377.607 210.761 390.263 211.776 L 393.31 214.355 L 407.607 214.355 L 410.419 209.901 C 410.728 209.948 411.025 209.981 411.309 210.002 Q 412.477 210.88 414.189 209.649 C 415.274 209.216 415.996 208.434 416.44 207.414 Q 416.476 207.369 416.513 207.323 L 425.654 191.855 Q 423.105 194.843 422.373 189.511 L 415.645 196.455 Z " fill-rule="evenodd" fill="url(#_lgradient_28)"/><clipPath id="_clipPath_E0YAANh3xKaKqAIrN6IYBmzanKSkQvEp"><path d=" M 211.951 -149.864 L 511.951 -149.864 L 511.951 450.136 L 211.951 450.136 L 211.951 -149.864 Z  M 415.645 196.455 C 414.688 193.287 413.462 190.381 412.763 188.807 Q 410.575 183.886 403.388 185.057 L 401.279 183.182 Q 396.826 185.448 394.717 182.48 L 391.904 185.057 Q 384.794 184.199 381.826 192.557 L 379.717 201.698 Q 377.607 210.761 390.263 211.776 L 393.31 214.355 L 407.607 214.355 L 410.419 209.901 C 410.728 209.948 411.025 209.981 411.309 210.002 Q 412.477 210.88 414.189 209.649 C 415.274 209.216 415.996 208.434 416.44 207.414 Q 416.476 207.369 416.513 207.323 L 425.654 191.855 Q 423.105 194.843 422.373 189.511 L 415.645 196.455 L 415.645 196.455 Z " fill-rule="evenodd" fill="rgb(255,255,255)"/></clipPath><g clip-path="url(#_clipPath_E0YAANh3xKaKqAIrN6IYBmzanKSkQvEp)"><linearGradient id="_lgradient_29" x1="0.43482826670853086" y1="0.3492647058823528" x2="0.42342345594704384" y2="0.7659470363232274" gradientTransform="matrix(46.239,0,0,31.875,379.415,182.48)" gradientUnits="userSpaceOnUse"><stop offset="0%" stop-opacity="1" style="stop-color:rgb(30,30,30)"/><stop offset="100%" stop-opacity="1" style="stop-color:rgb(0,0,0)"/></linearGradient><mask id="_mask_rDXIR4SY4snrGT6dRwM0oesXrL5jbyjp" x="-200%" y="-200%" width="400%" height="400%"><rect x="-200%" y="-200%" width="400%" height="400%" style="fill:white;"/><path d=" M 415.645 196.455 C 414.688 193.287 413.462 190.381 412.763 188.807 Q 410.575 183.886 403.388 185.057 L 401.279 183.182 Q 396.826 185.448 394.717 182.48 L 391.904 185.057 Q 384.794 184.199 381.826 192.557 L 379.717 201.698 Q 377.607 210.761 390.263 211.776 L 393.31 214.355 L 407.607 214.355 L 410.419 209.901 C 410.728 209.948 411.025 209.981 411.309 210.002 Q 412.477 210.88 414.189 209.649 C 415.274 209.216 415.996 208.434 416.44 207.414 Q 416.476 207.369 416.513 207.323 L 425.654 191.855 Q 423.105 194.843 422.373 189.511 L 415.645 196.455 Z " fill-rule="evenodd" fill="black" stroke="none"/></mask><path d=" M 415.645 196.455 C 414.688 193.287 413.462 190.381 412.763 188.807 Q 410.575 183.886 403.388 185.057 L 401.279 183.182 Q 396.826 185.448 394.717 182.48 L 391.904 185.057 Q 384.794 184.199 381.826 192.557 L 379.717 201.698 Q 377.607 210.761 390.263 211.776 L 393.31 214.355 L 407.607 214.355 L 410.419 209.901 C 410.728 209.948 411.025 209.981 411.309 210.002 Q 412.477 210.88 414.189 209.649 C 415.274 209.216 415.996 208.434 416.44 207.414 Q 416.476 207.369 416.513 207.323 L 425.654 191.855 Q 423.105 194.843 422.373 189.511 L 415.645 196.455 Z " fill-rule="evenodd" fill="url(#_lgradient_29)"/><path d=" M 415.645 196.455 C 414.688 193.287 413.462 190.381 412.763 188.807 Q 410.575 183.886 403.388 185.057 L 401.279 183.182 Q 396.826 185.448 394.717 182.48 L 391.904 185.057 Q 384.794 184.199 381.826 192.557 L 379.717 201.698 Q 377.607 210.761 390.263 211.776 L 393.31 214.355 L 407.607 214.355 L 410.419 209.901 C 410.728 209.948 411.025 209.981 411.309 210.002 Q 412.477 210.88 414.189 209.649 C 415.274 209.216 415.996 208.434 416.44 207.414 Q 416.476 207.369 416.513 207.323 L 425.654 191.855 Q 423.105 194.843 422.373 189.511 L 415.645 196.455 Z " fill-rule="evenodd" fill="url(#_lgradient_29)" mask="url(#_mask_rDXIR4SY4snrGT6dRwM0oesXrL5jbyjp)" vector-effect="non-scaling-stroke" stroke-width="0.104" stroke="rgb(62,55,55)" stroke-opacity="10000" stroke-linejoin="miter" stroke-linecap="square" stroke-miterlimit="3"/></g><path d=" M 392.607 209.774 Q 392.044 211.167 389.701 211.636" fill="none"/><clipPath id="_clipPath_lKdxAKvAKQJsjjDXOFHG8biG8DCyzDqU"><path d=" M 211.951 -149.864 L 511.951 -149.864 L 511.951 450.136 L 211.951 450.136 L 211.951 -149.864 Z  M 392.607 209.774 Q 392.044 211.167 389.701 211.636 L 392.607 209.774 Z " fill-rule="evenodd" fill="rgb(255,255,255)"/></clipPath><g clip-path="url(#_clipPath_lKdxAKvAKQJsjjDXOFHG8biG8DCyzDqU)"><mask id="_mask_YP9Noy9CE3mqqmIEMMhUg51UNQcpUVrl" x="-200%" y="-200%" width="400%" height="400%"><rect x="-200%" y="-200%" width="400%" height="400%" style="fill:white;"/><path d=" M 392.607 209.774 Q 392.044 211.167 389.701 211.636" fill="black" stroke="none"/></mask><path d=" M 392.607 209.774 Q 392.044 211.167 389.701 211.636" fill="none"/><path d=" M 392.607 209.774 Q 392.044 211.167 389.701 211.636" fill="none" mask="url(#_mask_YP9Noy9CE3mqqmIEMMhUg51UNQcpUVrl)" vector-effect="non-scaling-stroke" stroke-width="0.4" stroke="rgb(62,55,55)" stroke-opacity="10000" stroke-linejoin="miter" stroke-linecap="square" stroke-miterlimit="3"/></g><path d=" M 383.701 204.042 L 390.263 204.745 Q 388.857 210.605 391.435 209.198 L 392.607 209.774" fill="none"/><clipPath id="_clipPath_oFyUfa1saooGqAPhdqPCT4LTrJHaPQTm"><path d=" M 211.951 -149.864 L 511.951 -149.864 L 511.951 450.136 L 211.951 450.136 L 211.951 -149.864 Z  M 383.701 204.042 L 390.263 204.745 Q 388.857 210.605 391.435 209.198 L 392.607 209.774 L 383.701 204.042 Z " fill-rule="evenodd" fill="rgb(255,255,255)"/></clipPath><g clip-path="url(#_clipPath_oFyUfa1saooGqAPhdqPCT4LTrJHaPQTm)"><mask id="_mask_uwnApYtm2AGpA39yNsHPWeR5rbzmGRtE" x="-200%" y="-200%" width="400%" height="400%"><rect x="-200%" y="-200%" width="400%" height="400%" style="fill:white;"/><path d=" M 383.701 204.042 L 390.263 204.745 Q 388.857 210.605 391.435 209.198 L 392.607 209.774" fill="black" stroke="none"/></mask><path d=" M 383.701 204.042 L 390.263 204.745 Q 388.857 210.605 391.435 209.198 L 392.607 209.774" fill="none"/><path d=" M 383.701 204.042 L 390.263 204.745 Q 388.857 210.605 391.435 209.198 L 392.607 209.774" fill="none" mask="url(#_mask_uwnApYtm2AGpA39yNsHPWeR5rbzmGRtE)" vector-effect="non-scaling-stroke" stroke-width="0.4" stroke="rgb(47,44,44)" stroke-opacity="10000" stroke-linejoin="miter" stroke-linecap="square" stroke-miterlimit="3"/></g><linearGradient id="_lgradient_30" x1="0.43483569059322136" y1="0.3492712682804924" x2="0.427550245546947" y2="1.2261573293693309" gradientTransform="matrix(34.515,0,0,43.582,379.248,208.663)" gradientUnits="userSpaceOnUse"><stop offset="0%" stop-opacity="1" style="stop-color:rgb(30,30,30)"/><stop offset="100%" stop-opacity="1" style="stop-color:rgb(0,0,0)"/></linearGradient><path d=" M 390.263 211.636 Q 380.888 251.62 379.248 251.151 Q 380.888 252.792 382.294 251.151 Q 382.06 250.917 385.342 250.682 Q 388.075 253.026 390.029 251.855 Q 394.482 252.089 395.654 251.151 Q 396.982 251.933 397.763 250.682 Q 401.279 250.761 401.279 249.98 Q 405.185 250.682 405.029 249.276 Q 409.482 249.511 409.951 248.573 L 410.419 247.87 L 412.763 247.167 Q 415.888 225.058 409.248 211.776 Q 392.607 205.62 390.263 211.636 Z " fill="url(#_lgradient_30)"/><clipPath id="_clipPath_2MYhCbVby2GAblBbcLal7NhwhB2UTpD1"><path d=" M 211.951 -149.864 L 511.951 -149.864 L 511.951 450.136 L 211.951 450.136 L 211.951 -149.864 Z  M 390.263 211.636 Q 380.888 251.62 379.248 251.151 Q 380.888 252.792 382.294 251.151 Q 382.06 250.917 385.342 250.682 Q 388.075 253.026 390.029 251.855 Q 394.482 252.089 395.654 251.151 Q 396.982 251.933 397.763 250.682 Q 401.279 250.761 401.279 249.98 Q 405.185 250.682 405.029 249.276 Q 409.482 249.511 409.951 248.573 L 410.419 247.87 L 412.763 247.167 Q 415.888 225.058 409.248 211.776 Q 392.607 205.62 390.263 211.636 Z " fill-rule="evenodd" fill="rgb(255,255,255)"/></clipPath><g clip-path="url(#_clipPath_2MYhCbVby2GAblBbcLal7NhwhB2UTpD1)"><linearGradient id="_lgradient_31" x1="0.43483569059322136" y1="0.3492712682804924" x2="0.427550245546947" y2="1.2261573293693309" gradientTransform="matrix(34.515,0,0,43.582,379.248,208.663)" gradientUnits="userSpaceOnUse"><stop offset="0%" stop-opacity="1" style="stop-color:rgb(30,30,30)"/><stop offset="100%" stop-opacity="1" style="stop-color:rgb(0,0,0)"/></linearGradient><mask id="_mask_MEbKwoOsOiXog8wgFmhveVCMvyqkLr5k" x="-200%" y="-200%" width="400%" height="400%"><rect x="-200%" y="-200%" width="400%" height="400%" style="fill:white;"/><path d=" M 390.263 211.636 Q 380.888 251.62 379.248 251.151 Q 380.888 252.792 382.294 251.151 Q 382.06 250.917 385.342 250.682 Q 388.075 253.026 390.029 251.855 Q 394.482 252.089 395.654 251.151 Q 396.982 251.933 397.763 250.682 Q 401.279 250.761 401.279 249.98 Q 405.185 250.682 405.029 249.276 Q 409.482 249.511 409.951 248.573 L 410.419 247.87 L 412.763 247.167 Q 415.888 225.058 409.248 211.776 Q 392.607 205.62 390.263 211.636 Z " fill="black" stroke="none"/></mask><path d=" M 390.263 211.636 Q 380.888 251.62 379.248 251.151 Q 380.888 252.792 382.294 251.151 Q 382.06 250.917 385.342 250.682 Q 388.075 253.026 390.029 251.855 Q 394.482 252.089 395.654 251.151 Q 396.982 251.933 397.763 250.682 Q 401.279 250.761 401.279 249.98 Q 405.185 250.682 405.029 249.276 Q 409.482 249.511 409.951 248.573 L 410.419 247.87 L 412.763 247.167 Q 415.888 225.058 409.248 211.776 Q 392.607 205.62 390.263 211.636 Z " fill="url(#_lgradient_31)"/><path d=" M 390.263 211.636 Q 380.888 251.62 379.248 251.151 Q 380.888 252.792 382.294 251.151 Q 382.06 250.917 385.342 250.682 Q 388.075 253.026 390.029 251.855 Q 394.482 252.089 395.654 251.151 Q 396.982 251.933 397.763 250.682 Q 401.279 250.761 401.279 249.98 Q 405.185 250.682 405.029 249.276 Q 409.482 249.511 409.951 248.573 L 410.419 247.87 L 412.763 247.167 Q 415.888 225.058 409.248 211.776 Q 392.607 205.62 390.263 211.636 Z " fill="url(#_lgradient_31)" mask="url(#_mask_MEbKwoOsOiXog8wgFmhveVCMvyqkLr5k)" vector-effect="non-scaling-stroke" stroke-width="0.104" stroke="rgb(0,0,0)" stroke-opacity="10000" stroke-linejoin="miter" stroke-linecap="square" stroke-miterlimit="3"/></g><clipPath id="_clipPath_5NUdiwIlpZga104ejG08r54pVeDrArM3"><path d=" M 211.951 -149.864 L 511.951 -149.864 L 511.951 450.136 L 211.951 450.136 L 211.951 -149.864 Z  M 387.919 196.776 L 386.748 204.276 L 387.919 196.776 Z " fill-rule="evenodd" fill="rgb(255,255,255)"/></clipPath><g clip-path="url(#_clipPath_5NUdiwIlpZga104ejG08r54pVeDrArM3)"><mask id="_mask_k8s6uF6TEwlBN9dGBJhYwa97v2hXDzGb" x="-200%" y="-200%" width="400%" height="400%"><rect x="-200%" y="-200%" width="400%" height="400%" style="fill:white;"/><line x1="387.919" y1="196.776" x2="386.748" y2="204.276" fill="black" stroke="none"/></mask><line x1="387.919" y1="196.776" x2="386.748" y2="204.276" mask="url(#_mask_k8s6uF6TEwlBN9dGBJhYwa97v2hXDzGb)" vector-effect="non-scaling-stroke" stroke-width="0.4" stroke="rgb(47,44,44)" stroke-opacity="10000" stroke-linejoin="miter" stroke-linecap="square" stroke-miterlimit="3"/></g><path d=" M 392.842 210.136 Q 397.88 212.45 397.294 210.37 Q 398.115 209.887 397.763 209.198 Q 399.199 208.532 397.998 208.026 Q 400.07 206.906 396.357 205.214 Q 393.119 204.95 390.498 205.214 Q 388.681 209.052 391.201 209.198 L 392.842 210.136 Z " fill="rgb(246,194,147)"/><path d=" M 397.763 208.026 C 397.409 207.699 396.889 207.524 396.445 207.302" fill="none"/><clipPath id="_clipPath_8HbzoO2860UNRZySq2DjKDyh23uSlqXi"><path d=" M 211.951 -149.864 L 511.951 -149.864 L 511.951 450.136 L 211.951 450.136 L 211.951 -149.864 Z  M 397.763 208.026 C 397.409 207.699 396.889 207.524 396.445 207.302 L 397.763 208.026 Z " fill-rule="evenodd" fill="rgb(255,255,255)"/></clipPath><g clip-path="url(#_clipPath_8HbzoO2860UNRZySq2DjKDyh23uSlqXi)"><mask id="_mask_6a9C92bHpSQbvioN5EHfQTdIoFyacHPJ" x="-200%" y="-200%" width="400%" height="400%"><rect x="-200%" y="-200%" width="400%" height="400%" style="fill:white;"/><path d=" M 397.763 208.026 C 397.409 207.699 396.889 207.524 396.445 207.302" fill="black" stroke="none"/></mask><path d=" M 397.763 208.026 C 397.409 207.699 396.889 207.524 396.445 207.302" fill="none"/><path d=" M 397.763 208.026 C 397.409 207.699 396.889 207.524 396.445 207.302" fill="none" mask="url(#_mask_6a9C92bHpSQbvioN5EHfQTdIoFyacHPJ)" vector-effect="non-scaling-stroke" stroke-width="0.104" stroke="rgb(230,168,134)" stroke-opacity="10000" stroke-linejoin="miter" stroke-linecap="square" stroke-miterlimit="3"/></g><path d=" M 397.763 209.198 C 397.218 208.703 396.651 208.744 395.983 208.686" fill="none"/><clipPath id="_clipPath_Qu4coQTtDQitOo2lbKpPee2jhzvLBrnw"><path d=" M 211.951 -149.864 L 511.951 -149.864 L 511.951 450.136 L 211.951 450.136 L 211.951 -149.864 Z  M 397.763 209.198 C 397.218 208.703 396.651 208.744 395.983 208.686 L 397.763 209.198 Z " fill-rule="evenodd" fill="rgb(255,255,255)"/></clipPath><g clip-path="url(#_clipPath_Qu4coQTtDQitOo2lbKpPee2jhzvLBrnw)"><mask id="_mask_2zNyKAgwvZQlUQ2u6BK2qO15Mp3WbI04" x="-200%" y="-200%" width="400%" height="400%"><rect x="-200%" y="-200%" width="400%" height="400%" style="fill:white;"/><path d=" M 397.763 209.198 C 397.218 208.703 396.651 208.744 395.983 208.686" fill="black" stroke="none"/></mask><path d=" M 397.763 209.198 C 397.218 208.703 396.651 208.744 395.983 208.686" fill="none"/><path d=" M 397.763 209.198 C 397.218 208.703 396.651 208.744 395.983 208.686" fill="none" mask="url(#_mask_2zNyKAgwvZQlUQ2u6BK2qO15Mp3WbI04)" vector-effect="non-scaling-stroke" stroke-width="0.104" stroke="rgb(230,168,134)" stroke-opacity="10000" stroke-linejoin="miter" stroke-linecap="square" stroke-miterlimit="3"/></g><path d=" M 397.06 210.37 C 396.719 209.909 396.274 209.982 395.851 209.774" fill="none"/><clipPath id="_clipPath_F601HCl49d4ueHZ3VkLxw7JxKd32rL8R"><path d=" M 211.951 -149.864 L 511.951 -149.864 L 511.951 450.136 L 211.951 450.136 L 211.951 -149.864 Z  M 397.06 210.37 C 396.719 209.909 396.274 209.982 395.851 209.774 L 397.06 210.37 Z " fill-rule="evenodd" fill="rgb(255,255,255)"/></clipPath><g clip-path="url(#_clipPath_F601HCl49d4ueHZ3VkLxw7JxKd32rL8R)"><mask id="_mask_pAgeN7JvcPA6bhYiari4SnzbMw9RSWy3" x="-200%" y="-200%" width="400%" height="400%"><rect x="-200%" y="-200%" width="400%" height="400%" style="fill:white;"/><path d=" M 397.06 210.37 C 396.719 209.909 396.274 209.982 395.851 209.774" fill="black" stroke="none"/></mask><path d=" M 397.06 210.37 C 396.719 209.909 396.274 209.982 395.851 209.774" fill="none"/><path d=" M 397.06 210.37 C 396.719 209.909 396.274 209.982 395.851 209.774" fill="none" mask="url(#_mask_pAgeN7JvcPA6bhYiari4SnzbMw9RSWy3)" vector-effect="non-scaling-stroke" stroke-width="0.104" stroke="rgb(230,168,134)" stroke-opacity="10000" stroke-linejoin="miter" stroke-linecap="square" stroke-miterlimit="3"/></g><path d=" M 411.309 210.002 Q 408.369 208.905 409.717 205.448 L 407.607 195.839" fill="none"/><clipPath id="_clipPath_7pk7NQlhGR6BWCTYMhxdiIsjhHWhurgs"><path d=" M 211.951 -149.864 L 511.951 -149.864 L 511.951 450.136 L 211.951 450.136 L 211.951 -149.864 Z  M 411.309 210.002 Q 408.369 208.905 409.717 205.448 L 407.607 195.839 L 411.309 210.002 Z " fill-rule="evenodd" fill="rgb(255,255,255)"/></clipPath><g clip-path="url(#_clipPath_7pk7NQlhGR6BWCTYMhxdiIsjhHWhurgs)"><mask id="_mask_EcG1iPbge0laaW4vJA3SlHj44ZDBRueR" x="-200%" y="-200%" width="400%" height="400%"><rect x="-200%" y="-200%" width="400%" height="400%" style="fill:white;"/><path d=" M 411.309 210.002 Q 408.369 208.905 409.717 205.448 L 407.607 195.839" fill="black" stroke="none"/></mask><path d=" M 411.309 210.002 Q 408.369 208.905 409.717 205.448 L 407.607 195.839" fill="none"/><path d=" M 411.309 210.002 Q 408.369 208.905 409.717 205.448 L 407.607 195.839" fill="none" mask="url(#_mask_EcG1iPbge0laaW4vJA3SlHj44ZDBRueR)" vector-effect="non-scaling-stroke" stroke-width="0.4" stroke="rgb(62,55,55)" stroke-opacity="10000" stroke-linejoin="miter" stroke-linecap="square" stroke-miterlimit="3"/></g><clipPath id="_clipPath_ZgE40bYZcpRxWSTQWBC0VcON3F8FSynG"><path d=" M 211.951 -149.864 L 511.951 -149.864 L 511.951 450.136 L 211.951 450.136 L 211.951 -149.864 Z  M 416.982 195.136 L 413.467 198.417 L 416.982 195.136 Z " fill-rule="evenodd" fill="rgb(255,255,255)"/></clipPath><g clip-path="url(#_clipPath_ZgE40bYZcpRxWSTQWBC0VcON3F8FSynG)"><mask id="_mask_mW9flghuAIMSIyV1PrJQtOh61hvaK00k" x="-200%" y="-200%" width="400%" height="400%"><rect x="-200%" y="-200%" width="400%" height="400%" style="fill:white;"/><line x1="416.982" y1="195.136" x2="413.467" y2="198.417" fill="black" stroke="none"/></mask><line x1="416.982" y1="195.136" x2="413.467" y2="198.417" mask="url(#_mask_mW9flghuAIMSIyV1PrJQtOh61hvaK00k)" vector-effect="non-scaling-stroke" stroke-width="0.4" stroke="rgb(62,55,55)" stroke-opacity="10000" stroke-linejoin="miter" stroke-linecap="square" stroke-miterlimit="3"/></g></g></g></g></g></g><linearGradient id="_lgradient_32" x1="0.5179487179487179" y1="0.10000000000000142" x2="0.5231200172376638" y2="0.16808877397112812" gradientTransform="matrix(182.716,0,0,9.877,270.593,290.259)" gradientUnits="userSpaceOnUse"><stop offset="0%" stop-opacity="1" style="stop-color:rgb(65,26,0)"/><stop offset="99.16666666666667%" stop-opacity="1" style="stop-color:rgb(220,195,93)"/></linearGradient><rect x="270.593" y="290.259" width="182.716" height="9.877" transform="matrix(1,0,0,1,0,0)" fill="url(#_lgradient_32)"/><clipPath id="_clipPath_CK6D8hW0gr5u3E8XrP3qGk8kLOUQpzwp"><rect x="0" y="2.275" width="300" height="334.725" transform="matrix(1,0,0,1,0,0)" fill="rgb(255,255,255)"/></clipPath><g clip-path="url(#_clipPath_CK6D8hW0gr5u3E8XrP3qGk8kLOUQpzwp)"><g><g><linearGradient id="_lgradient_33" x1="-0.4517268053910346" y1="0.8943452380952488" x2="2.0237918119478304" y2="-0.1906106326732646" gradientTransform="matrix(101.645,0,0,115.707,0,127.625)" gradientUnits="userSpaceOnUse"><stop offset="0%" stop-opacity="1" style="stop-color:rgb(65,26,0)"/><stop offset="33.75%" stop-opacity="1" style="stop-color:rgb(116,82,31)"/><stop offset="97.91666666666666%" stop-opacity="1" style="stop-color:rgb(220,195,93)"/></linearGradient><path d=" M 56.774 168.815 L 62.869 160.816 L 88.158 127.625 L 101.645 127.625 L 16.53 240.577 L 2.098 240.577 L 0 243.332 L 56.774 168.815 Z " fill="url(#_lgradient_33)"/><linearGradient id="_lgradient_34" x1="-3.2208567891570112" y1="0.7500000000000568" x2="10.245258221625035" y2="-6.146393132206848" gradientTransform="matrix(13.775,0,0,19.285,16.53,221.293)" gradientUnits="userSpaceOnUse"><stop offset="0%" stop-opacity="1" style="stop-color:rgb(65,26,0)"/><stop offset="35.833333333333336%" stop-opacity="1" style="stop-color:rgb(120,86,33)"/><stop offset="97.91666666666666%" stop-opacity="1" style="stop-color:rgb(220,195,93)"/></linearGradient><rect x="16.53" y="221.293" width="13.775" height="19.285" transform="matrix(1,0,0,1,0,0)" fill="url(#_lgradient_34)"/><linearGradient id="_lgradient_35" x1="0.5746430045179025" y1="5.850000000000001" x2="0.6085438953749459" y2="-0.4386152539824897" gradientTransform="matrix(16.53,0,0,41.324,177.549,94.566)" gradientUnits="userSpaceOnUse"><stop offset="0%" stop-opacity="1" style="stop-color:rgb(65,26,0)"/><stop offset="38.333333333333336%" stop-opacity="1" style="stop-color:rgb(119,85,32)"/><stop offset="98.33333333333333%" stop-opacity="1" style="stop-color:rgb(220,195,93)"/></linearGradient><rect x="177.549" y="94.566" width="16.53" height="41.324" transform="matrix(1,0,0,1,0,0)" fill="url(#_lgradient_35)"/><linearGradient id="_lgradient_36" x1="0.5785714285714274" y1="-0.44444444444444464" x2="0.5858353510895871" y2="1.0446596717779841" gradientTransform="matrix(96.423,0,0,61.986,162.253,219.915)" gradientUnits="userSpaceOnUse"><stop offset="21.25%" stop-opacity="1" style="stop-color:rgb(65,26,0)"/><stop offset="45.416666666666664%" stop-opacity="1" style="stop-color:rgb(116,82,31)"/><stop offset="71.25%" stop-opacity="1" style="stop-color:rgb(220,195,93)"/></linearGradient><rect x="162.253" y="219.915" width="96.423" height="61.986" transform="matrix(1,0,0,1,0,0)" fill="url(#_lgradient_36)"/><g><linearGradient id="_lgradient_37" x1="0.5179487179487179" y1="0.10000000000000142" x2="0.5231200172376638" y2="0.16808877397112812" gradientTransform="matrix(268.606,0,0,20.662,7.977,281.901)" gradientUnits="userSpaceOnUse"><stop offset="0%" stop-opacity="1" style="stop-color:rgb(65,26,0)"/><stop offset="99.16666666666667%" stop-opacity="1" style="stop-color:rgb(220,195,93)"/></linearGradient><rect x="7.977" y="281.901" width="268.606" height="20.662" transform="matrix(1,0,0,1,0,0)" fill="url(#_lgradient_37)"/><linearGradient id="_lgradient_38" x1="1.06666666666667" y1="-0.38666666666667027" x2="1.0937917864420537" y2="1.267965639631827" gradientTransform="matrix(20.662,0,0,34.437,238.014,302.563)" gradientUnits="userSpaceOnUse"><stop offset="0%" stop-opacity="1" style="stop-color:rgb(65,26,0)"/><stop offset="98.33333333333333%" stop-opacity="1" style="stop-color:rgb(220,195,93)"/></linearGradient><rect x="238.014" y="302.563" width="20.662" height="34.437" transform="matrix(1,0,0,1,0,0)" fill="url(#_lgradient_38)"/><linearGradient id="_lgradient_39" x1="1.06666666666667" y1="-0.38666666666667027" x2="1.0937917864420537" y2="1.267965639631827" gradientTransform="matrix(20.662,0,0,34.437,131.949,302.563)" gradientUnits="userSpaceOnUse"><stop offset="0%" stop-opacity="1" style="stop-color:rgb(65,26,0)"/><stop offset="98.33333333333333%" stop-opacity="1" style="stop-color:rgb(220,195,93)"/></linearGradient><rect x="131.949" y="302.563" width="20.662" height="34.437" transform="matrix(1,0,0,1,0,0)" fill="url(#_lgradient_39)"/><linearGradient id="_lgradient_40" x1="1.0666666666666629" y1="-0.38666666666667027" x2="1.0937917864420472" y2="1.267965639631872" gradientTransform="matrix(20.662,0,0,34.437,24.507,302.563)" gradientUnits="userSpaceOnUse"><stop offset="0%" stop-opacity="1" style="stop-color:rgb(65,26,0)"/><stop offset="98.33333333333333%" stop-opacity="1" style="stop-color:rgb(220,195,93)"/></linearGradient><rect x="24.507" y="302.563" width="20.662" height="34.437" transform="matrix(1,0,0,1,0,0)" fill="url(#_lgradient_40)"/></g><linearGradient id="_lgradient_41" x1="0.5" y1="0" x2="0.51687823745666" y2="6.36309552116205" gradientTransform="matrix(12.397,0,0,41.324,167.074,94.566)" gradientUnits="userSpaceOnUse"><stop offset="0%" stop-opacity="1" style="stop-color:rgb(65,26,0)"/><stop offset="98.75%" stop-opacity="1" style="stop-color:rgb(220,195,93)"/></linearGradient><rect x="167.074" y="94.566" width="12.397" height="41.324" transform="matrix(1,0,0,1,0,0)" fill="url(#_lgradient_41)"/><linearGradient id="_lgradient_42" x1="1.406140718435795" y1="1.4634146341463525" x2="-0.11556182770902268" y2="-0.043523386205174486" gradientTransform="matrix(126.727,0,0,112.952,131.076,127.625)" gradientUnits="userSpaceOnUse"><stop offset="0%" stop-opacity="1" style="stop-color:rgb(65,26,0)"/><stop offset="39.166666666666664%" stop-opacity="1" style="stop-color:rgb(163,133,59)"/><stop offset="97.91666666666666%" stop-opacity="1" style="stop-color:rgb(220,195,93)"/></linearGradient><rect x="131.076" y="127.625" width="126.727" height="112.952" transform="matrix(1,0,0.754,1,-138.812,0)" fill="url(#_lgradient_42)"/><linearGradient id="_lgradient_43" x1="0.4933333333333323" y1="-0.16115930431421432" x2="0.5513390036842504" y2="2.4491070237161554" gradientTransform="matrix(137.747,0,0,145.518,24.507,136.383)" gradientUnits="userSpaceOnUse"><stop offset="0%" stop-opacity="1" style="stop-color:rgb(65,26,0)"/><stop offset="60.83333333333333%" stop-opacity="1" style="stop-color:rgb(144,112,48)"/><stop offset="86.66666666666667%" stop-opacity="1" style="stop-color:rgb(220,195,93)"/></linearGradient><path d=" M 162.253 225.954 L 162.253 281.901 L 24.507 281.901 L 24.507 229.61 L 94.757 136.383 L 162.253 225.954 Z " fill="url(#_lgradient_43)"/><linearGradient id="_lgradient_44" x1="0.8599999999999994" y1="0.8389848262487867" x2="0.12779661016949395" y2="0.02542550421488965" gradientTransform="matrix(34.437,0,0,34.437,71.34,225.46)" gradientUnits="userSpaceOnUse"><stop offset="0%" stop-opacity="0" style="stop-color:rgb(0,0,0)"/><stop offset="98.33333333333333%" stop-opacity="1" style="stop-color:rgb(0,0,0)"/></linearGradient><circle vector-effect="non-scaling-stroke" cx="88.5587558714546" cy="242.67818184207337" r="17.218342355744724" fill="url(#_lgradient_44)"/><linearGradient id="_lgradient_45" x1="1" y1="1" x2="0.12542372881355845" y2="0.14486613032255202" gradientTransform="matrix(24.794,0,0,21.695,177.549,249.049)" gradientUnits="userSpaceOnUse"><stop offset="0%" stop-opacity="0" style="stop-color:rgb(0,0,0)"/><stop offset="98.33333333333333%" stop-opacity="1" style="stop-color:rgb(0,0,0)"/></linearGradient><rect x="177.549" y="249.049" width="24.794" height="21.695" transform="matrix(1,0,0,1,0,0)" fill="url(#_lgradient_45)"/><linearGradient id="_lgradient_46" x1="0.5161906726904917" y1="1.1886807458043513" x2="0.5037636929498817" y2="-0.02019538756077255" gradientTransform="matrix(24.794,0,0,32.853,214.885,249.049)" gradientUnits="userSpaceOnUse"><stop offset="0%" stop-opacity="0" style="stop-color:rgb(0,0,0)"/><stop offset="98.33333333333333%" stop-opacity="1" style="stop-color:rgb(0,0,0)"/></linearGradient><rect x="214.885" y="249.049" width="24.794" height="32.853" transform="matrix(1,0,0,1,0,0)" fill="url(#_lgradient_46)"/></g><circle vector-effect="non-scaling-stroke" cx="158.12085898866334" cy="73.90372880422048" r="16.529608661514942" fill="rgb(106,103,103)"/><circle vector-effect="non-scaling-stroke" cx="174.65046765017823" cy="68.39385925038219" r="16.529608661514942" fill="rgb(106,103,103)"/><circle vector-effect="non-scaling-stroke" cx="196.68994586553148" cy="73.90372880422048" r="16.529608661514942" fill="rgb(106,103,103)"/><circle vector-effect="non-scaling-stroke" cx="166.52931105387958" cy="51.864250588867236" r="16.529608661514942" fill="rgb(106,103,103)"/><circle vector-effect="non-scaling-stroke" cx="191.18007631169317" cy="29.824772373513973" r="16.529608661514942" fill="rgb(106,103,103)"/><circle vector-effect="non-scaling-stroke" cx="166.52931105387958" cy="18.80503326583734" r="16.529608661514942" fill="rgb(106,103,103)"/><circle vector-effect="non-scaling-stroke" cx="174.65046765017823" cy="35.33464192735229" r="16.529608661514942" fill="rgb(106,103,103)"/><circle vector-effect="non-scaling-stroke" cx="180.16033720401654" cy="46.354381035028915" r="16.529608661514942" fill="rgb(106,103,103)"/></g></g><linearGradient id="_lgradient_47" x1="1.06666666666667" y1="-0.38666666666667027" x2="1.0937917864420537" y2="1.267965639631827" gradientTransform="matrix(12.346,0,0,36.864,440.963,300.136)" gradientUnits="userSpaceOnUse"><stop offset="0%" stop-opacity="1" style="stop-color:rgb(65,26,0)"/><stop offset="98.33333333333333%" stop-opacity="1" style="stop-color:rgb(220,195,93)"/></linearGradient><rect x="440.963" y="300.136" width="12.346" height="36.864" transform="matrix(1,0,0,1,0,0)" fill="url(#_lgradient_47)"/></g></g></svg>