<?xml version="1.0" encoding="UTF-8" standalone="no"?><!-- Generator: Gravit.io --><svg xmlns="http://www.w3.org/2000/svg" xmlns:xlink="http://www.w3.org/1999/xlink" style="isolation:isolate" viewBox="-581.243 -518.5 1920 1280" width="1920pt" height="1280pt"><defs><clipPath id="_clipPath_ylS7eoP4r82okrEnGuRdH0vgqJFRRoIT"><rect x="-581.243" y="-518.5" width="1920" height="1280"/></clipPath></defs><g clip-path="url(#_clipPath_ylS7eoP4r82okrEnGuRdH0vgqJFRRoIT)"><clipPath id="_clipPath_EwDXX8RsLcfGGbA3aomru24ev2juhZFR"><rect x="0" y="0" width="217.791" height="243" transform="matrix(1,0,0,1,0,0)" fill="rgb(255,255,255)"/></clipPath><g clip-path="url(#_clipPath_EwDXX8RsLcfGGbA3aomru24ev2juhZFR)"><g><g><linearGradient id="_lgradient_5" x1="-0.4517268053910346" y1="0.8943452380952488" x2="2.0237918119478304" y2="-0.1906106326732646" gradientTransform="matrix(73.791,0,0,84,0,91)" gradientUnits="userSpaceOnUse"><stop offset="0%" stop-opacity="1" style="stop-color:rgb(65,26,0)"/><stop offset="33.75%" stop-opacity="1" style="stop-color:rgb(116,82,31)"/><stop offset="97.91666666666666%" stop-opacity="1" style="stop-color:rgb(220,195,93)"/></linearGradient><path d=" M 41.216 120.903 L 45.641 115.096 L 64 91 L 73.791 91 L 12 173 L 1.523 173 L 0 175 L 41.216 120.903 Z " fill="url(#_lgradient_5)"/><linearGradient id="_lgradient_6" x1="-3.2208567891570112" y1="0.7500000000000568" x2="10.245258221625035" y2="-6.146393132206848" gradientTransform="matrix(10,0,0,14,12,159)" gradientUnits="userSpaceOnUse"><stop offset="0%" stop-opacity="1" style="stop-color:rgb(65,26,0)"/><stop offset="35.833333333333336%" stop-opacity="1" style="stop-color:rgb(120,86,33)"/><stop offset="97.91666666666666%" stop-opacity="1" style="stop-color:rgb(220,195,93)"/></linearGradient><rect x="12" y="159" width="10" height="14" transform="matrix(1,0,0,1,0,0)" fill="url(#_lgradient_6)"/><linearGradient id="_lgradient_7" x1="0.5746430045179025" y1="5.850000000000001" x2="0.6085438953749459" y2="-0.4386152539824897" gradientTransform="matrix(12,0,0,30,128.895,67)" gradientUnits="userSpaceOnUse"><stop offset="0%" stop-opacity="1" style="stop-color:rgb(65,26,0)"/><stop offset="38.333333333333336%" stop-opacity="1" style="stop-color:rgb(119,85,32)"/><stop offset="98.33333333333333%" stop-opacity="1" style="stop-color:rgb(220,195,93)"/></linearGradient><rect x="128.895" y="67" width="12" height="30" transform="matrix(1,0,0,1,0,0)" fill="url(#_lgradient_7)"/><linearGradient id="_lgradient_8" x1="0.5785714285714274" y1="-0.44444444444444464" x2="0.5858353510895871" y2="1.0446596717779841" gradientTransform="matrix(70,0,0,45,117.791,158)" gradientUnits="userSpaceOnUse"><stop offset="21.25%" stop-opacity="1" style="stop-color:rgb(65,26,0)"/><stop offset="45.416666666666664%" stop-opacity="1" style="stop-color:rgb(116,82,31)"/><stop offset="71.25%" stop-opacity="1" style="stop-color:rgb(220,195,93)"/></linearGradient><rect x="117.791" y="158" width="70" height="45" transform="matrix(1,0,0,1,0,0)" fill="url(#_lgradient_8)"/><g><linearGradient id="_lgradient_9" x1="0.5179487179487179" y1="0.10000000000000142" x2="0.5231200172376638" y2="0.16808877397112812" gradientTransform="matrix(195,0,0,15,5.791,203)" gradientUnits="userSpaceOnUse"><stop offset="0%" stop-opacity="1" style="stop-color:rgb(65,26,0)"/><stop offset="99.16666666666667%" stop-opacity="1" style="stop-color:rgb(220,195,93)"/></linearGradient><rect x="5.791" y="203" width="195" height="15" transform="matrix(1,0,0,1,0,0)" fill="url(#_lgradient_9)"/><linearGradient id="_lgradient_10" x1="1.06666666666667" y1="-0.38666666666667027" x2="1.0937917864420537" y2="1.267965639631827" gradientTransform="matrix(15,0,0,25,172.791,218)" gradientUnits="userSpaceOnUse"><stop offset="0%" stop-opacity="1" style="stop-color:rgb(65,26,0)"/><stop offset="98.33333333333333%" stop-opacity="1" style="stop-color:rgb(220,195,93)"/></linearGradient><rect x="172.791" y="218" width="15" height="25" transform="matrix(1,0,0,1,0,0)" fill="url(#_lgradient_10)"/><linearGradient id="_lgradient_11" x1="1.06666666666667" y1="-0.38666666666667027" x2="1.0937917864420537" y2="1.267965639631827" gradientTransform="matrix(15,0,0,25,95.791,218)" gradientUnits="userSpaceOnUse"><stop offset="0%" stop-opacity="1" style="stop-color:rgb(65,26,0)"/><stop offset="98.33333333333333%" stop-opacity="1" style="stop-color:rgb(220,195,93)"/></linearGradient><rect x="95.791" y="218" width="15" height="25" transform="matrix(1,0,0,1,0,0)" fill="url(#_lgradient_11)"/><linearGradient id="_lgradient_12" x1="1.0666666666666629" y1="-0.38666666666667027" x2="1.0937917864420472" y2="1.267965639631872" gradientTransform="matrix(15,0,0,25,17.791,218)" gradientUnits="userSpaceOnUse"><stop offset="0%" stop-opacity="1" style="stop-color:rgb(65,26,0)"/><stop offset="98.33333333333333%" stop-opacity="1" style="stop-color:rgb(220,195,93)"/></linearGradient><rect x="17.791" y="218" width="15" height="25" transform="matrix(1,0,0,1,0,0)" fill="url(#_lgradient_12)"/></g><linearGradient id="_lgradient_13" x1="0.5" y1="0" x2="0.51687823745666" y2="6.36309552116205" gradientTransform="matrix(9,0,0,30,121.291,67)" gradientUnits="userSpaceOnUse"><stop offset="0%" stop-opacity="1" style="stop-color:rgb(65,26,0)"/><stop offset="98.75%" stop-opacity="1" style="stop-color:rgb(220,195,93)"/></linearGradient><rect x="121.291" y="67" width="9" height="30" transform="matrix(1,0,0,1,0,0)" fill="url(#_lgradient_13)"/><linearGradient id="_lgradient_14" x1="1.406140718435795" y1="1.4634146341463525" x2="-0.11556182770902268" y2="-0.043523386205174486" gradientTransform="matrix(92,0,0,82,95.157,91)" gradientUnits="userSpaceOnUse"><stop offset="0%" stop-opacity="1" style="stop-color:rgb(65,26,0)"/><stop offset="39.166666666666664%" stop-opacity="1" style="stop-color:rgb(163,133,59)"/><stop offset="97.91666666666666%" stop-opacity="1" style="stop-color:rgb(220,195,93)"/></linearGradient><rect x="95.157" y="91" width="92" height="82" transform="matrix(1,0,0.754,1,-99.528,0)" fill="url(#_lgradient_14)"/><linearGradient id="_lgradient_15" x1="0.4933333333333323" y1="-0.16115930431421432" x2="0.5513390036842504" y2="2.4491070237161554" gradientTransform="matrix(100,0,0,105.642,17.791,97.358)" gradientUnits="userSpaceOnUse"><stop offset="0%" stop-opacity="1" style="stop-color:rgb(65,26,0)"/><stop offset="60.83333333333333%" stop-opacity="1" style="stop-color:rgb(144,112,48)"/><stop offset="86.66666666666667%" stop-opacity="1" style="stop-color:rgb(220,195,93)"/></linearGradient><path d=" M 117.791 162.384 L 117.791 203 L 17.791 203 L 17.791 165.038 L 68.791 97.358 L 117.791 162.384 Z " fill="url(#_lgradient_15)"/><linearGradient id="_lgradient_16" x1="0.8599999999999994" y1="0.8389848262487867" x2="0.12779661016949395" y2="0.02542550421488965" gradientTransform="matrix(25,0,0,25,51.791,162.025)" gradientUnits="userSpaceOnUse"><stop offset="0%" stop-opacity="0" style="stop-color:rgb(0,0,0)"/><stop offset="98.33333333333333%" stop-opacity="1" style="stop-color:rgb(0,0,0)"/></linearGradient><circle vector-effect="non-scaling-stroke" cx="64.29099999999988" cy="174.52518967188996" r="12.5" fill="url(#_lgradient_16)"/><linearGradient id="_lgradient_17" x1="1" y1="1" x2="0.12542372881355845" y2="0.14486613032255202" gradientTransform="matrix(18,0,0,15.75,128.895,179.15)" gradientUnits="userSpaceOnUse"><stop offset="0%" stop-opacity="0" style="stop-color:rgb(0,0,0)"/><stop offset="98.33333333333333%" stop-opacity="1" style="stop-color:rgb(0,0,0)"/></linearGradient><rect x="128.895" y="179.15" width="18" height="15.75" transform="matrix(1,0,0,1,0,0)" fill="url(#_lgradient_17)"/><linearGradient id="_lgradient_18" x1="0.5161906726904917" y1="1.1886807458043513" x2="0.5037636929498817" y2="-0.02019538756077255" gradientTransform="matrix(18,0,0,23.85,156,179.15)" gradientUnits="userSpaceOnUse"><stop offset="0%" stop-opacity="0" style="stop-color:rgb(0,0,0)"/><stop offset="98.33333333333333%" stop-opacity="1" style="stop-color:rgb(0,0,0)"/></linearGradient><rect x="156" y="179.15" width="18" height="23.85" transform="matrix(1,0,0,1,0,0)" fill="url(#_lgradient_18)"/></g><circle vector-effect="non-scaling-stroke" cx="114.79099999999988" cy="51.99999999999994" r="12" fill="rgb(106,103,103)"/><circle vector-effect="non-scaling-stroke" cx="126.79099999999988" cy="47.99999999999994" r="12" fill="rgb(106,103,103)"/><circle vector-effect="non-scaling-stroke" cx="142.79099999999988" cy="51.99999999999994" r="12" fill="rgb(106,103,103)"/><circle vector-effect="non-scaling-stroke" cx="120.89528394578491" cy="35.99999999999994" r="12" fill="rgb(106,103,103)"/><circle vector-effect="non-scaling-stroke" cx="138.79099999999988" cy="19.999999999999943" r="12" fill="rgb(106,103,103)"/><circle vector-effect="non-scaling-stroke" cx="120.89528394578491" cy="11.999999999999945" r="12" fill="rgb(106,103,103)"/><circle vector-effect="non-scaling-stroke" cx="126.79099999999988" cy="23.999999999999943" r="12" fill="rgb(106,103,103)"/><circle vector-effect="non-scaling-stroke" cx="130.79099999999988" cy="31.999999999999943" r="12" fill="rgb(106,103,103)"/></g></g><clipPath id="_clipPath_CKA3WwFInL75VAEeSTps6kYbMdOFBdX3"><rect x="-581.243" y="-518.5" width="1920" height="1280" transform="matrix(1,0,0,1,0,0)" fill="rgb(255,255,255)"/></clipPath><g clip-path="url(#_clipPath_CKA3WwFInL75VAEeSTps6kYbMdOFBdX3)"><g><mask id="_mask_AbFk9HiVdZmzs5lxe9w9G3TQMIQ19mDx" x="-200%" y="-200%" width="400%" height="400%"><rect x="-200%" y="-200%" width="400%" height="400%" style="fill:white;"/><path d=" M 308.579 129.853 Q 307.07 128.885 302.203 128.487 L 302.203 128.487 L 302.203 128.487 L 302.203 128.487 L 302.203 128.487 L 302.203 128.487" fill="black" stroke="none"/></mask><path d=" M 308.579 129.853 Q 307.07 128.885 302.203 128.487 L 302.203 128.487 L 302.203 128.487 L 302.203 128.487 L 302.203 128.487 L 302.203 128.487" fill="none"/><path d=" M 308.579 129.853 Q 307.07 128.885 302.203 128.487 L 302.203 128.487 L 302.203 128.487 L 302.203 128.487 L 302.203 128.487 L 302.203 128.487" fill="none" mask="url(#_mask_AbFk9HiVdZmzs5lxe9w9G3TQMIQ19mDx)" vector-effect="non-scaling-stroke" stroke-width="2" stroke="rgb(0,0,0)" stroke-opacity="100" stroke-linejoin="miter" stroke-linecap="square" stroke-miterlimit="3"/><mask id="_mask_5h5GvvRdlMh1haQEA7tL13fPhVs9ji4J" x="-200%" y="-200%" width="400%" height="400%"><rect x="-200%" y="-200%" width="400%" height="400%" style="fill:white;"/><path d=" M 306.302 120.517 Q 307.241 127.178 305.619 129.17 L 305.619 129.17 L 305.619 129.17 L 305.619 129.17" fill="black" stroke="none"/></mask><path d=" M 306.302 120.517 Q 307.241 127.178 305.619 129.17 L 305.619 129.17 L 305.619 129.17 L 305.619 129.17" fill="none"/><path d=" M 306.302 120.517 Q 307.241 127.178 305.619 129.17 L 305.619 129.17 L 305.619 129.17 L 305.619 129.17" fill="none" mask="url(#_mask_5h5GvvRdlMh1haQEA7tL13fPhVs9ji4J)" vector-effect="non-scaling-stroke" stroke-width="2" stroke="rgb(0,0,0)" stroke-opacity="100" stroke-linejoin="miter" stroke-linecap="square" stroke-miterlimit="3"/><mask id="_mask_XsqZStXO0vW5CNjTyfQ5UHOb2pmczUk2" x="-200%" y="-200%" width="400%" height="400%"><rect x="-200%" y="-200%" width="400%" height="400%" style="fill:white;"/><path d=" M 308.579 136.001 Q 311.524 135.275 310.856 134.179 L 309.717 133.496 Q 306.928 133.752 308.579 129.853 L 308.579 129.853 L 308.579 129.853 L 308.579 129.853" fill="black" stroke="none"/></mask><path d=" M 308.579 136.001 Q 311.524 135.275 310.856 134.179 L 309.717 133.496 Q 306.928 133.752 308.579 129.853 L 308.579 129.853 L 308.579 129.853 L 308.579 129.853" fill="none"/><path d=" M 308.579 136.001 Q 311.524 135.275 310.856 134.179 L 309.717 133.496 Q 306.928 133.752 308.579 129.853 L 308.579 129.853 L 308.579 129.853 L 308.579 129.853" fill="none" mask="url(#_mask_XsqZStXO0vW5CNjTyfQ5UHOb2pmczUk2)" vector-effect="non-scaling-stroke" stroke-width="2" stroke="rgb(0,0,0)" stroke-opacity="100" stroke-linejoin="miter" stroke-linecap="square" stroke-miterlimit="3"/><path d=" M 312.905 107.539 Q 315.751 110.612 319.281 107.994 L 320.419 105.262 Q 323.151 99.797 320.419 96.609 Q 317.687 93.421 316.093 92.283 L 312.45 97.292 L 311.994 102.529 L 311.539 104.351 L 312.45 104.351 L 312.905 107.539 Z " fill="rgb(246,194,147)"/><linearGradient id="_lgradient_19" x1="0.4348278403478538" y1="0.34926470588235325" x2="0.4278316807000925" y2="1.226149199147335" gradientTransform="matrix(11.739,0,0,19.138,306.175,90)" gradientUnits="userSpaceOnUse"><stop offset="0%" stop-opacity="1" style="stop-color:rgb(30,30,30)"/><stop offset="100%" stop-opacity="1" style="stop-color:rgb(0,0,0)"/></linearGradient><path d=" M 312.905 105.945 Q 314.328 103.269 313.36 100.024 Q 314.84 93.08 317.004 93.877 L 317.914 90.689 Q 315.068 88.81 310.856 92.055 Q 309.205 94.161 309.034 95.015 Q 307.269 101.049 306.302 100.708 Q 305.903 103.838 306.757 103.668 Q 307.383 107.311 306.302 107.083 Q 305.846 109.246 310.856 109.132 Q 312.905 107.937 311.994 107.539 Q 314.442 107.425 312.45 105.945" fill="url(#_lgradient_19)"/><linearGradient id="_lgradient_20" x1="0.43482983345402104" y1="0.34926470588235325" x2="0.42897388064481473" y2="1.2261575543408987" gradientTransform="matrix(9.791,0,0,19.07,317.004,90.689)" gradientUnits="userSpaceOnUse"><stop offset="0%" stop-opacity="1" style="stop-color:rgb(30,30,30)"/><stop offset="100%" stop-opacity="1" style="stop-color:rgb(0,0,0)"/></linearGradient><path d=" M 326.795 108.449 Q 324.29 106.571 325.428 101.846 L 324.062 99.114 Q 322.696 90.689 317.459 90.689 L 317.004 93.877 Q 319.793 95.243 319.508 97.292 L 320.419 101.846 Q 321.102 104.351 319.281 105.262 Q 318.711 106.571 319.508 107.994 Q 320.647 109.816 322.013 109.588 Q 322.867 109.929 324.29 109.588 L 326.795 108.449 Z " fill="url(#_lgradient_20)"/><path d=" M 319.281 197.252 Q 318.256 195.06 317.914 204.311 L 316.548 211.142 Q 317.317 213.106 317.914 212.736 Q 319.366 213.02 319.964 212.736 Q 323.208 211.711 323.379 210.459 Q 323.635 202.176 322.696 202.489 Q 323.294 198.021 322.696 197.935 L 319.281 197.252 Z " fill="rgb(62,55,55)"/><path d=" M 310.4 175.165 L 308.579 178.125 L 303.114 197.935 Q 300.012 202.205 299.698 197.252 L 301.748 179.264 L 303.114 174.254 L 305.163 169.928 L 311.539 171.522 L 310.4 175.165 Z " fill="rgb(246,194,147)"/><path d=" M 319.964 169.928 L 325.884 168.107 L 327.478 168.79 L 326.795 171.067 L 326.339 175.165 Q 328.502 176.531 322.924 197.935 Q 317.687 203.172 319.281 197.252 L 319.964 180.175 L 319.964 169.928 Z " fill="rgb(246,194,147)"/><path d=" M 303.114 197.935 Q 304.11 198.504 303.114 201.806 Q 301.605 210.43 302.203 209.776 Q 302.374 213.02 300.837 212.736 L 298.788 212.736 Q 296.596 211.313 296.283 210.686 Q 295.543 211.142 296.738 207.271 L 299.471 197.252 Q 300.609 202.034 303.114 197.935 Z " fill="rgb(62,55,55)"/><path d=" M 339 114.878 L 340.318 113.777 C 341.198 112.394 341.504 110.456 341.001 109.45 L 341.001 109.45 C 340.498 108.445 340.396 107.629 340.774 107.629 L 340.774 107.629 C 341.151 107.629 341.789 108.095 342.199 108.668 L 342.199 108.668 C 342.418 108.974 342.909 108.469 343.296 107.541 L 343.328 107.464 C 343.552 106.927 344.184 106.346 344.739 106.169 Q 347.832 105.181 346.694 108.54 Q 344.96 113.356 342 118.878 L 339 114.878 Z " fill="rgb(246,194,147)"/><linearGradient id="_lgradient_21" x1="0.43482901495993254" y1="0.3492647058823528" x2="0.42342421929768914" y2="0.9537180005963275" gradientTransform="matrix(44.922,0,0,30.967,298.039,107.539)" gradientUnits="userSpaceOnUse"><stop offset="0%" stop-opacity="1" style="stop-color:rgb(30,30,30)"/><stop offset="100%" stop-opacity="1" style="stop-color:rgb(0,0,0)"/></linearGradient><mask id="_mask_bWPfjpQp0XCD22Zvzrmi0TeRQN2chhtt" x="-200%" y="-200%" width="400%" height="400%"><rect x="-200%" y="-200%" width="400%" height="400%" style="fill:white;"/><path d=" M 333.238 121.116 C 332.308 118.038 331.117 115.215 330.438 113.686 Q 328.313 108.905 321.33 110.043 L 319.281 108.222 Q 314.954 110.423 312.905 107.539 L 310.173 110.043 Q 303.266 109.208 300.382 117.33 L 298.332 126.21 Q 296.283 135.014 308.579 136.001 L 311.539 138.506 L 325.428 138.506 L 328.161 134.179 C 328.461 134.225 328.749 134.257 329.025 134.277 Q 330.159 135.13 331.823 133.934 C 332.877 133.514 333.579 132.754 334.01 131.763 Q 334.045 131.719 334.081 131.675 L 342.961 116.647 Q 340.485 120.058 339.774 114.878 L 333.238 121.116 Z " fill-rule="evenodd" fill="black" stroke="none"/></mask><path d=" M 333.238 121.116 C 332.308 118.038 331.117 115.215 330.438 113.686 Q 328.313 108.905 321.33 110.043 L 319.281 108.222 Q 314.954 110.423 312.905 107.539 L 310.173 110.043 Q 303.266 109.208 300.382 117.33 L 298.332 126.21 Q 296.283 135.014 308.579 136.001 L 311.539 138.506 L 325.428 138.506 L 328.161 134.179 C 328.461 134.225 328.749 134.257 329.025 134.277 Q 330.159 135.13 331.823 133.934 C 332.877 133.514 333.579 132.754 334.01 131.763 Q 334.045 131.719 334.081 131.675 L 342.961 116.647 Q 340.485 120.058 339.774 114.878 L 333.238 121.116 Z " fill-rule="evenodd" fill="url(#_lgradient_21)"/><path d=" M 333.238 121.116 C 332.308 118.038 331.117 115.215 330.438 113.686 Q 328.313 108.905 321.33 110.043 L 319.281 108.222 Q 314.954 110.423 312.905 107.539 L 310.173 110.043 Q 303.266 109.208 300.382 117.33 L 298.332 126.21 Q 296.283 135.014 308.579 136.001 L 311.539 138.506 L 325.428 138.506 L 328.161 134.179 C 328.461 134.225 328.749 134.257 329.025 134.277 Q 330.159 135.13 331.823 133.934 C 332.877 133.514 333.579 132.754 334.01 131.763 Q 334.045 131.719 334.081 131.675 L 342.961 116.647 Q 340.485 120.058 339.774 114.878 L 333.238 121.116 Z " fill-rule="evenodd" fill="url(#_lgradient_21)" mask="url(#_mask_bWPfjpQp0XCD22Zvzrmi0TeRQN2chhtt)" vector-effect="non-scaling-stroke" stroke-width="2" stroke="rgb(62,55,55)" stroke-opacity="100" stroke-linejoin="miter" stroke-linecap="square" stroke-miterlimit="3"/><mask id="_mask_Clge2YCUoLURPprfPfPlN1QUL8On60yB" x="-200%" y="-200%" width="400%" height="400%"><rect x="-200%" y="-200%" width="400%" height="400%" style="fill:white;"/><path d=" M 310.856 134.055 Q 310.628 135.546 308.351 136.001" fill="black" stroke="none"/></mask><path d=" M 310.856 134.055 Q 310.628 135.546 308.351 136.001" fill="none"/><path d=" M 310.856 134.055 Q 310.628 135.546 308.351 136.001" fill="none" mask="url(#_mask_Clge2YCUoLURPprfPfPlN1QUL8On60yB)" vector-effect="non-scaling-stroke" stroke-width="2" stroke="rgb(62,55,55)" stroke-opacity="100" stroke-linejoin="miter" stroke-linecap="square" stroke-miterlimit="3"/><mask id="_mask_K7EYLmBCJ7q6Vf2v3hpnpo0rira2W5Ub" x="-200%" y="-200%" width="400%" height="400%"><rect x="-200%" y="-200%" width="400%" height="400%" style="fill:white;"/><path d=" M 302.203 128.487 L 308.579 129.17 Q 307.213 134.862 309.717 133.496 L 310.856 134.055" fill="black" stroke="none"/></mask><path d=" M 302.203 128.487 L 308.579 129.17 Q 307.213 134.862 309.717 133.496 L 310.856 134.055" fill="none"/><path d=" M 302.203 128.487 L 308.579 129.17 Q 307.213 134.862 309.717 133.496 L 310.856 134.055" fill="none" mask="url(#_mask_K7EYLmBCJ7q6Vf2v3hpnpo0rira2W5Ub)" vector-effect="non-scaling-stroke" stroke-width="2" stroke="rgb(47,44,44)" stroke-opacity="100" stroke-linejoin="miter" stroke-linecap="square" stroke-miterlimit="3"/><linearGradient id="_lgradient_22" x1="0.43483124601160217" y1="0.3492653643696726" x2="0.42563224136770994" y2="1.2261310878429703" gradientTransform="matrix(33.532,0,0,41.574,297.877,133.743)" gradientUnits="userSpaceOnUse"><stop offset="0%" stop-opacity="1" style="stop-color:rgb(30,30,30)"/><stop offset="100%" stop-opacity="1" style="stop-color:rgb(0,0,0)"/></linearGradient><mask id="_mask_lP5CtVsl337BOdtT5e05GPRBkYttHQHg" x="-200%" y="-200%" width="400%" height="400%"><rect x="-200%" y="-200%" width="400%" height="400%" style="fill:white;"/><path d=" M 308.579 136.912 Q 299.471 174.71 297.877 174.254 Q 299.471 175.848 300.837 174.254 Q 300.609 174.027 303.797 173.799 Q 306.454 176.076 308.351 174.938 Q 312.677 175.165 313.816 174.254 Q 315.106 175.013 315.865 173.799 Q 319.281 173.875 319.281 173.116 Q 323.076 173.799 322.924 172.433 Q 327.25 172.661 327.705 171.75 L 328.161 171.067 L 330.438 170.384 Q 333.474 148.904 327.022 136.001 Q 310.856 131.067 308.579 136.912 Z " fill="black" stroke="none"/></mask><path d=" M 308.579 136.912 Q 299.471 174.71 297.877 174.254 Q 299.471 175.848 300.837 174.254 Q 300.609 174.027 303.797 173.799 Q 306.454 176.076 308.351 174.938 Q 312.677 175.165 313.816 174.254 Q 315.106 175.013 315.865 173.799 Q 319.281 173.875 319.281 173.116 Q 323.076 173.799 322.924 172.433 Q 327.25 172.661 327.705 171.75 L 328.161 171.067 L 330.438 170.384 Q 333.474 148.904 327.022 136.001 Q 310.856 131.067 308.579 136.912 Z " fill="url(#_lgradient_22)"/><path d=" M 308.579 136.912 Q 299.471 174.71 297.877 174.254 Q 299.471 175.848 300.837 174.254 Q 300.609 174.027 303.797 173.799 Q 306.454 176.076 308.351 174.938 Q 312.677 175.165 313.816 174.254 Q 315.106 175.013 315.865 173.799 Q 319.281 173.875 319.281 173.116 Q 323.076 173.799 322.924 172.433 Q 327.25 172.661 327.705 171.75 L 328.161 171.067 L 330.438 170.384 Q 333.474 148.904 327.022 136.001 Q 310.856 131.067 308.579 136.912 Z " fill="url(#_lgradient_22)" mask="url(#_mask_lP5CtVsl337BOdtT5e05GPRBkYttHQHg)" vector-effect="non-scaling-stroke" stroke-width="2" stroke="rgb(0,0,0)" stroke-opacity="100" stroke-linejoin="miter" stroke-linecap="square" stroke-miterlimit="3"/><mask id="_mask_pO4hDJPNvxhVeu8uyqNrbOLAM89zVegK" x="-200%" y="-200%" width="400%" height="400%"><rect x="-200%" y="-200%" width="400%" height="400%" style="fill:white;"/><line x1="306.302" y1="121.428" x2="305.163" y2="128.715" fill="black" stroke="none"/></mask><line x1="306.302" y1="121.428" x2="305.163" y2="128.715" mask="url(#_mask_pO4hDJPNvxhVeu8uyqNrbOLAM89zVegK)" vector-effect="non-scaling-stroke" stroke-width="2" stroke="rgb(47,44,44)" stroke-opacity="100" stroke-linejoin="miter" stroke-linecap="square" stroke-miterlimit="3"/><path d=" M 311.083 134.407 Q 315.979 136.656 315.41 134.635 Q 316.207 134.165 315.865 133.496 Q 317.26 132.849 316.093 132.358 Q 318.107 131.269 314.499 129.625 Q 311.354 129.369 308.806 129.625 Q 307.042 133.354 309.49 133.496 L 311.083 134.407 Z " fill="rgb(246,194,147)"/><mask id="_mask_mm6rFcelZcRRJdLxN3W1G3Hm9f7zfJXz" x="-200%" y="-200%" width="400%" height="400%"><rect x="-200%" y="-200%" width="400%" height="400%" style="fill:white;"/><path d=" M 315.865 132.358 C 315.521 132.039 315.015 131.869 314.584 131.653" fill="black" stroke="none"/></mask><path d=" M 315.865 132.358 C 315.521 132.039 315.015 131.869 314.584 131.653" fill="none"/><path d=" M 315.865 132.358 C 315.521 132.039 315.015 131.869 314.584 131.653" fill="none" mask="url(#_mask_mm6rFcelZcRRJdLxN3W1G3Hm9f7zfJXz)" vector-effect="non-scaling-stroke" stroke-width="2" stroke="rgb(230,168,134)" stroke-opacity="100" stroke-linejoin="miter" stroke-linecap="square" stroke-miterlimit="3"/><mask id="_mask_w4PlRHC3gst4iEvoHBTPTJGLAP7TSrA1" x="-200%" y="-200%" width="400%" height="400%"><rect x="-200%" y="-200%" width="400%" height="400%" style="fill:white;"/><path d=" M 315.865 133.496 C 315.336 133.014 314.785 133.055 314.136 132.998" fill="black" stroke="none"/></mask><path d=" M 315.865 133.496 C 315.336 133.014 314.785 133.055 314.136 132.998" fill="none"/><path d=" M 315.865 133.496 C 315.336 133.014 314.785 133.055 314.136 132.998" fill="none" mask="url(#_mask_w4PlRHC3gst4iEvoHBTPTJGLAP7TSrA1)" vector-effect="non-scaling-stroke" stroke-width="2" stroke="rgb(230,168,134)" stroke-opacity="100" stroke-linejoin="miter" stroke-linecap="square" stroke-miterlimit="3"/><mask id="_mask_9Rq3PbiCtKVn0gmdjuvHG9pfHdORsqeO" x="-200%" y="-200%" width="400%" height="400%"><rect x="-200%" y="-200%" width="400%" height="400%" style="fill:white;"/><path d=" M 315.182 134.635 C 314.851 134.187 314.419 134.258 314.008 134.055" fill="black" stroke="none"/></mask><path d=" M 315.182 134.635 C 314.851 134.187 314.419 134.258 314.008 134.055" fill="none"/><path d=" M 315.182 134.635 C 314.851 134.187 314.419 134.258 314.008 134.055" fill="none" mask="url(#_mask_9Rq3PbiCtKVn0gmdjuvHG9pfHdORsqeO)" vector-effect="non-scaling-stroke" stroke-width="2" stroke="rgb(230,168,134)" stroke-opacity="100" stroke-linejoin="miter" stroke-linecap="square" stroke-miterlimit="3"/><mask id="_mask_wdNLaa0oKOqUsuFEAVbp08VTJnQMkUPo" x="-200%" y="-200%" width="400%" height="400%"><rect x="-200%" y="-200%" width="400%" height="400%" style="fill:white;"/><path d=" M 328.844 134.407 Q 326.168 133.212 327.478 129.853 L 325.428 120.517" fill="black" stroke="none"/></mask><path d=" M 328.844 134.407 Q 326.168 133.212 327.478 129.853 L 325.428 120.517" fill="none"/><path d=" M 328.844 134.407 Q 326.168 133.212 327.478 129.853 L 325.428 120.517" fill="none" mask="url(#_mask_wdNLaa0oKOqUsuFEAVbp08VTJnQMkUPo)" vector-effect="non-scaling-stroke" stroke-width="2" stroke="rgb(62,55,55)" stroke-opacity="100" stroke-linejoin="miter" stroke-linecap="square" stroke-miterlimit="3"/><mask id="_mask_1zj4zajZK4fdr1uXNaohu6BJckYB5fpJ" x="-200%" y="-200%" width="400%" height="400%"><rect x="-200%" y="-200%" width="400%" height="400%" style="fill:white;"/><line x1="334.536" y1="119.834" x2="331.121" y2="123.022" fill="black" stroke="none"/></mask><line x1="334.536" y1="119.834" x2="331.121" y2="123.022" mask="url(#_mask_1zj4zajZK4fdr1uXNaohu6BJckYB5fpJ)" vector-effect="non-scaling-stroke" stroke-width="2" stroke="rgb(62,55,55)" stroke-opacity="100" stroke-linejoin="miter" stroke-linecap="square" stroke-miterlimit="3"/></g></g><linearGradient id="_lgradient_23" x1="1.06666666666667" y1="-0.38666666666667027" x2="1.0937917864420537" y2="1.267965639631827" gradientTransform="matrix(15,0,0,29,332,214)" gradientUnits="userSpaceOnUse"><stop offset="0%" stop-opacity="1" style="stop-color:rgb(65,26,0)"/><stop offset="98.33333333333333%" stop-opacity="1" style="stop-color:rgb(220,195,93)"/></linearGradient><rect x="332" y="214" width="15" height="29" transform="matrix(1,0,0,1,0,0)" fill="url(#_lgradient_23)"/><linearGradient id="_lgradient_24" x1="0.5179487179487179" y1="0.10000000000000142" x2="0.5231200172376638" y2="0.16808877397112812" gradientTransform="matrix(154,0,0,6,199,208)" gradientUnits="userSpaceOnUse"><stop offset="0%" stop-opacity="1" style="stop-color:rgb(65,26,0)"/><stop offset="99.16666666666667%" stop-opacity="1" style="stop-color:rgb(220,195,93)"/></linearGradient><rect x="199" y="208" width="154" height="6" transform="matrix(1,0,0,1,0,0)" fill="url(#_lgradient_24)"/></g></svg>