<?xml version="1.0" encoding="UTF-8" standalone="no"?><!-- Generator: Gravit.io --><svg xmlns="http://www.w3.org/2000/svg" xmlns:xlink="http://www.w3.org/1999/xlink" style="isolation:isolate" viewBox="0 0 100 200" width="100pt" height="200pt"><defs><clipPath id="_clipPath_cBDIA7kuKE4kOF6yoLvU0eTRDJAv4m6g"><rect width="100" height="200"/></clipPath></defs><g clip-path="url(#_clipPath_cBDIA7kuKE4kOF6yoLvU0eTRDJAv4m6g)"><clipPath id="_clipPath_hzk3LqeXBnKvD9rDbjCr0PyvHQGur1Pb"><rect x="-256" y="-100" width="600" height="400" transform="matrix(1,0,0,1,0,0)" fill="rgb(255,255,255)"/></clipPath><g clip-path="url(#_clipPath_hzk3LqeXBnKvD9rDbjCr0PyvHQGur1Pb)"><g><mask id="_mask_5OkJDJhwjgWBeND7qYT3PuFT85GWEVWU" x="-200%" y="-200%" width="400%" height="400%"><rect x="-200%" y="-200%" width="400%" height="400%" style="fill:white;"/><path d=" M 86.5 43.125 C 85.62 44.708 84.863 46.316 84.137 47.949" fill="black" stroke="none"/></mask><path d=" M 86.5 43.125 C 85.62 44.708 84.863 46.316 84.137 47.949" fill="none"/><path d=" M 86.5 43.125 C 85.62 44.708 84.863 46.316 84.137 47.949" fill="none" mask="url(#_mask_5OkJDJhwjgWBeND7qYT3PuFT85GWEVWU)" vector-effect="non-scaling-stroke" stroke-width="0.104" stroke="rgb(0,0,0)" stroke-opacity="100" stroke-linejoin="miter" stroke-linecap="square" stroke-miterlimit="3"/><mask id="_mask_jec5iUObzgia25OFs8KeHHSopohO9Ia3" x="-200%" y="-200%" width="400%" height="400%"><rect x="-200%" y="-200%" width="400%" height="400%" style="fill:white;"/><path d=" M 87.438 43.125 C 87.032 45.657 86.172 46.709 84.938 48.437" fill="black" stroke="none"/></mask><path d=" M 87.438 43.125 C 87.032 45.657 86.172 46.709 84.938 48.437" fill="none"/><path d=" M 87.438 43.125 C 87.032 45.657 86.172 46.709 84.938 48.437" fill="none" mask="url(#_mask_jec5iUObzgia25OFs8KeHHSopohO9Ia3)" vector-effect="non-scaling-stroke" stroke-width="0.104" stroke="rgb(0,0,0)" stroke-opacity="100" stroke-linejoin="miter" stroke-linecap="square" stroke-miterlimit="3"/><mask id="_mask_72e0PJmKCoCx5GhK7X3oi6vmgB7t5vYL" x="-200%" y="-200%" width="400%" height="400%"><rect x="-200%" y="-200%" width="400%" height="400%" style="fill:white;"/><path d=" M 88.372 43.125 C 88.55 45.176 87.399 46.681 86.5 48.437" fill="black" stroke="none"/></mask><path d=" M 88.372 43.125 C 88.55 45.176 87.399 46.681 86.5 48.437" fill="none"/><path d=" M 88.372 43.125 C 88.55 45.176 87.399 46.681 86.5 48.437" fill="none" mask="url(#_mask_72e0PJmKCoCx5GhK7X3oi6vmgB7t5vYL)" vector-effect="non-scaling-stroke" stroke-width="0.104" stroke="rgb(0,0,0)" stroke-opacity="100" stroke-linejoin="miter" stroke-linecap="square" stroke-miterlimit="3"/><mask id="_mask_EpdkWc2B8B02X1w1xWRy0U6jTLGDSxQh" x="-200%" y="-200%" width="400%" height="400%"><rect x="-200%" y="-200%" width="400%" height="400%" style="fill:white;"/><path d=" M 37.75 73.75 Q 35.68 72.422 29 71.875 L 29 71.875 L 29 71.875 L 29 71.875 L 29 71.875 L 29 71.875" fill="black" stroke="none"/></mask><path d=" M 37.75 73.75 Q 35.68 72.422 29 71.875 L 29 71.875 L 29 71.875 L 29 71.875 L 29 71.875 L 29 71.875" fill="none"/><path d=" M 37.75 73.75 Q 35.68 72.422 29 71.875 L 29 71.875 L 29 71.875 L 29 71.875 L 29 71.875 L 29 71.875" fill="none" mask="url(#_mask_EpdkWc2B8B02X1w1xWRy0U6jTLGDSxQh)" vector-effect="non-scaling-stroke" stroke-width="0.104" stroke="rgb(0,0,0)" stroke-opacity="100" stroke-linejoin="miter" stroke-linecap="square" stroke-miterlimit="3"/><mask id="_mask_AouD4BbKPdcOEadJ3S2dbvk0jfFHxnjE" x="-200%" y="-200%" width="400%" height="400%"><rect x="-200%" y="-200%" width="400%" height="400%" style="fill:white;"/><path d=" M 34.625 60.937 Q 35.914 70.078 33.688 72.812 L 33.688 72.812 L 33.688 72.812 L 33.688 72.812" fill="black" stroke="none"/></mask><path d=" M 34.625 60.937 Q 35.914 70.078 33.688 72.812 L 33.688 72.812 L 33.688 72.812 L 33.688 72.812" fill="none"/><path d=" M 34.625 60.937 Q 35.914 70.078 33.688 72.812 L 33.688 72.812 L 33.688 72.812 L 33.688 72.812" fill="none" mask="url(#_mask_AouD4BbKPdcOEadJ3S2dbvk0jfFHxnjE)" vector-effect="non-scaling-stroke" stroke-width="0.104" stroke="rgb(0,0,0)" stroke-opacity="100" stroke-linejoin="miter" stroke-linecap="square" stroke-miterlimit="3"/><mask id="_mask_H2R02NljD0b2xLNj29Jxj3LuMa0XVuyR" x="-200%" y="-200%" width="400%" height="400%"><rect x="-200%" y="-200%" width="400%" height="400%" style="fill:white;"/><path d=" M 37.75 82.187 Q 41.793 81.192 40.875 79.687 L 39.313 78.75 Q 35.484 79.102 37.75 73.75 L 37.75 73.75 L 37.75 73.75 L 37.75 73.75" fill="black" stroke="none"/></mask><path d=" M 37.75 82.187 Q 41.793 81.192 40.875 79.687 L 39.313 78.75 Q 35.484 79.102 37.75 73.75 L 37.75 73.75 L 37.75 73.75 L 37.75 73.75" fill="none"/><path d=" M 37.75 82.187 Q 41.793 81.192 40.875 79.687 L 39.313 78.75 Q 35.484 79.102 37.75 73.75 L 37.75 73.75 L 37.75 73.75 L 37.75 73.75" fill="none" mask="url(#_mask_H2R02NljD0b2xLNj29Jxj3LuMa0XVuyR)" vector-effect="non-scaling-stroke" stroke-width="0.104" stroke="rgb(0,0,0)" stroke-opacity="100" stroke-linejoin="miter" stroke-linecap="square" stroke-miterlimit="3"/><path d=" M 43.688 43.125 Q 47.594 47.969 52.438 44.375 L 54 40 Q 57.75 32.5 54 28.125 Q 50.25 23.75 48.063 22.187 L 43.063 29.062 L 42.438 36.25 L 41.813 38.75 L 43.063 38.75 L 43.688 43.125 Z " fill="rgb(246,194,147)"/><linearGradient id="_lgradient_0" x1="0.4348278403478538" y1="0.34926470588235325" x2="0.4278316807000925" y2="1.226149199147335" gradientTransform="matrix(16.112,0,0,26.266,34.451,19.055)" gradientUnits="userSpaceOnUse"><stop offset="0%" stop-opacity="1" style="stop-color:rgb(30,30,30)"/><stop offset="100%" stop-opacity="1" style="stop-color:rgb(0,0,0)"/></linearGradient><path d=" M 43.688 40.937 Q 45.641 37.266 44.313 32.812 Q 46.344 23.281 49.313 24.375 L 50.563 20 Q 46.656 17.422 40.875 21.875 Q 38.609 24.766 38.375 25.937 Q 35.953 34.219 34.625 33.75 Q 34.078 38.047 35.25 37.812 Q 36.109 42.812 34.625 42.5 Q 34 45.469 40.875 45.312 Q 43.688 43.672 42.438 43.125 Q 45.797 42.969 43.063 40.937" fill="url(#_lgradient_0)"/><linearGradient id="_lgradient_1" x1="0.43482983345402104" y1="0.34926470588235325" x2="0.42897388064481473" y2="1.2261575543408987" gradientTransform="matrix(13.438,0,0,26.172,49.313,20)" gradientUnits="userSpaceOnUse"><stop offset="0%" stop-opacity="1" style="stop-color:rgb(30,30,30)"/><stop offset="100%" stop-opacity="1" style="stop-color:rgb(0,0,0)"/></linearGradient><path d=" M 62.75 44.375 Q 59.313 41.797 60.875 35.312 L 59 31.562 Q 57.125 20 49.938 20 L 49.313 24.375 Q 53.141 26.25 52.75 29.062 L 54 35.312 Q 54.938 38.75 52.438 40 Q 51.656 41.797 52.75 43.75 Q 54.313 46.25 56.188 45.937 Q 57.359 46.406 59.313 45.937 L 62.75 44.375 Z " fill="url(#_lgradient_1)"/><path d=" M 52.438 166.25 Q 51.031 163.242 50.563 175.937 L 48.688 185.312 Q 49.742 188.008 50.563 187.5 Q 52.555 187.891 53.375 187.5 Q 57.828 186.094 58.063 184.375 Q 58.414 173.008 57.125 173.437 Q 57.945 167.305 57.125 167.187 L 52.438 166.25 Z " fill="rgb(62,55,55)"/><path d=" M 40.25 135.937 L 37.75 140 L 30.25 167.187 Q 25.992 173.047 25.563 166.25 L 28.375 141.562 L 30.25 134.687 L 33.063 128.75 L 41.813 130.937 L 40.25 135.937 Z " fill="rgb(246,194,147)"/><path d=" M 53.375 128.75 L 61.5 126.25 L 63.688 127.187 L 62.75 130.312 L 62.125 135.937 Q 65.094 137.812 57.438 167.187 Q 50.25 174.375 52.438 166.25 L 53.375 142.812 L 53.375 128.75 Z " fill="rgb(246,194,147)"/><path d=" M 30.25 167.187 Q 31.617 167.969 30.25 172.5 Q 28.18 184.336 29 183.437 Q 29.234 187.891 27.125 187.5 L 24.313 187.5 Q 21.305 185.547 20.875 184.687 Q 19.859 185.312 21.5 180 L 25.25 166.25 Q 26.813 172.812 30.25 167.187 Z " fill="rgb(62,55,55)"/><path d=" M 79.938 53.75 L 79.938 53.75 C 81.145 51.853 81.565 49.192 80.875 47.812 L 80.875 47.812 C 80.185 46.433 80.045 45.312 80.563 45.312 L 80.563 45.312 C 81.08 45.312 81.957 45.952 82.519 46.739 L 82.519 46.739 C 82.819 47.159 83.493 46.466 84.024 45.192 L 84.068 45.087 C 84.375 44.349 85.243 43.552 86.005 43.309 Q 90.25 41.953 88.688 46.562 Q 87.125 51.172 83.063 58.75 L 79.938 53.75 Z " fill="rgb(246,194,147)"/><linearGradient id="_lgradient_2" x1="0.43482901495993254" y1="0.3492647058823528" x2="0.42342421929768914" y2="0.9537180005963275" gradientTransform="matrix(61.652,0,0,42.5,23.286,43.125)" gradientUnits="userSpaceOnUse"><stop offset="0%" stop-opacity="1" style="stop-color:rgb(30,30,30)"/><stop offset="100%" stop-opacity="1" style="stop-color:rgb(0,0,0)"/></linearGradient><mask id="_mask_5IubomcIxqWmLBMmJxcxBqyZuQZBOkzH" x="-200%" y="-200%" width="400%" height="400%"><rect x="-200%" y="-200%" width="400%" height="400%" style="fill:white;"/><path d=" M 71.593 61.759 C 70.317 57.535 68.682 53.66 67.75 51.562 Q 64.833 45 55.25 46.562 L 52.438 44.062 Q 46.5 47.083 43.688 43.125 L 39.938 46.562 Q 30.458 45.417 26.5 56.562 L 23.688 68.75 Q 20.875 80.833 37.75 82.187 L 41.813 85.625 L 60.875 85.625 L 64.625 79.687 C 65.037 79.75 65.433 79.794 65.811 79.822 Q 67.368 80.992 69.651 79.351 C 71.098 78.774 72.061 77.731 72.652 76.371 Q 72.701 76.311 72.75 76.25 L 84.938 55.625 Q 81.539 59.609 80.563 52.5 L 71.593 61.759 Z " fill-rule="evenodd" fill="black" stroke="none"/></mask><path d=" M 71.593 61.759 C 70.317 57.535 68.682 53.66 67.75 51.562 Q 64.833 45 55.25 46.562 L 52.438 44.062 Q 46.5 47.083 43.688 43.125 L 39.938 46.562 Q 30.458 45.417 26.5 56.562 L 23.688 68.75 Q 20.875 80.833 37.75 82.187 L 41.813 85.625 L 60.875 85.625 L 64.625 79.687 C 65.037 79.75 65.433 79.794 65.811 79.822 Q 67.368 80.992 69.651 79.351 C 71.098 78.774 72.061 77.731 72.652 76.371 Q 72.701 76.311 72.75 76.25 L 84.938 55.625 Q 81.539 59.609 80.563 52.5 L 71.593 61.759 Z " fill-rule="evenodd" fill="url(#_lgradient_2)"/><path d=" M 71.593 61.759 C 70.317 57.535 68.682 53.66 67.75 51.562 Q 64.833 45 55.25 46.562 L 52.438 44.062 Q 46.5 47.083 43.688 43.125 L 39.938 46.562 Q 30.458 45.417 26.5 56.562 L 23.688 68.75 Q 20.875 80.833 37.75 82.187 L 41.813 85.625 L 60.875 85.625 L 64.625 79.687 C 65.037 79.75 65.433 79.794 65.811 79.822 Q 67.368 80.992 69.651 79.351 C 71.098 78.774 72.061 77.731 72.652 76.371 Q 72.701 76.311 72.75 76.25 L 84.938 55.625 Q 81.539 59.609 80.563 52.5 L 71.593 61.759 Z " fill-rule="evenodd" fill="url(#_lgradient_2)" mask="url(#_mask_5IubomcIxqWmLBMmJxcxBqyZuQZBOkzH)" vector-effect="non-scaling-stroke" stroke-width="0.104" stroke="rgb(62,55,55)" stroke-opacity="100" stroke-linejoin="miter" stroke-linecap="square" stroke-miterlimit="3"/><mask id="_mask_6MsPAcm7les90qbo8Wsl1odQXq16ju0I" x="-200%" y="-200%" width="400%" height="400%"><rect x="-200%" y="-200%" width="400%" height="400%" style="fill:white;"/><path d=" M 40.875 79.517 Q 40.125 81.375 37 82" fill="black" stroke="none"/></mask><path d=" M 40.875 79.517 Q 40.125 81.375 37 82" fill="none"/><path d=" M 40.875 79.517 Q 40.125 81.375 37 82" fill="none" mask="url(#_mask_6MsPAcm7les90qbo8Wsl1odQXq16ju0I)" vector-effect="non-scaling-stroke" stroke-width="0.4" stroke="rgb(62,55,55)" stroke-opacity="100" stroke-linejoin="miter" stroke-linecap="square" stroke-miterlimit="3"/><mask id="_mask_L0zZRBtnmNPZJI8jx3fMTlMTTpwQbwG0" x="-200%" y="-200%" width="400%" height="400%"><rect x="-200%" y="-200%" width="400%" height="400%" style="fill:white;"/><path d=" M 29 71.875 L 37.75 72.812 Q 35.875 80.625 39.313 78.75 L 40.875 79.517" fill="black" stroke="none"/></mask><path d=" M 29 71.875 L 37.75 72.812 Q 35.875 80.625 39.313 78.75 L 40.875 79.517" fill="none"/><path d=" M 29 71.875 L 37.75 72.812 Q 35.875 80.625 39.313 78.75 L 40.875 79.517" fill="none" mask="url(#_mask_L0zZRBtnmNPZJI8jx3fMTlMTTpwQbwG0)" vector-effect="non-scaling-stroke" stroke-width="0.4" stroke="rgb(47,44,44)" stroke-opacity="100" stroke-linejoin="miter" stroke-linecap="square" stroke-miterlimit="3"/><linearGradient id="_lgradient_3" x1="0.43483124601160217" y1="0.3492653643696726" x2="0.42563224136770994" y2="1.2261310878429703" gradientTransform="matrix(46.021,0,0,58.11,23.063,78.036)" gradientUnits="userSpaceOnUse"><stop offset="0%" stop-opacity="1" style="stop-color:rgb(30,30,30)"/><stop offset="100%" stop-opacity="1" style="stop-color:rgb(0,0,0)"/></linearGradient><mask id="_mask_IxwK3q5dwW1THHzUZSPrtW3MJlnLNKZw" x="-200%" y="-200%" width="400%" height="400%"><rect x="-200%" y="-200%" width="400%" height="400%" style="fill:white;"/><path d=" M 37.75 82 Q 25.25 135.312 23.063 134.687 Q 25.25 136.875 27.125 134.687 Q 26.813 134.375 31.188 134.062 Q 34.833 137.187 37.438 135.625 Q 43.375 135.937 44.938 134.687 Q 46.708 135.729 47.75 134.062 Q 52.438 134.167 52.438 133.125 Q 57.646 134.062 57.438 132.187 Q 63.375 132.5 64 131.25 L 64.625 130.312 L 67.75 129.375 Q 71.917 99.896 63.063 82.187 Q 40.875 73.979 37.75 82 Z " fill="black" stroke="none"/></mask><path d=" M 37.75 82 Q 25.25 135.312 23.063 134.687 Q 25.25 136.875 27.125 134.687 Q 26.813 134.375 31.188 134.062 Q 34.833 137.187 37.438 135.625 Q 43.375 135.937 44.938 134.687 Q 46.708 135.729 47.75 134.062 Q 52.438 134.167 52.438 133.125 Q 57.646 134.062 57.438 132.187 Q 63.375 132.5 64 131.25 L 64.625 130.312 L 67.75 129.375 Q 71.917 99.896 63.063 82.187 Q 40.875 73.979 37.75 82 Z " fill="url(#_lgradient_3)"/><path d=" M 37.75 82 Q 25.25 135.312 23.063 134.687 Q 25.25 136.875 27.125 134.687 Q 26.813 134.375 31.188 134.062 Q 34.833 137.187 37.438 135.625 Q 43.375 135.937 44.938 134.687 Q 46.708 135.729 47.75 134.062 Q 52.438 134.167 52.438 133.125 Q 57.646 134.062 57.438 132.187 Q 63.375 132.5 64 131.25 L 64.625 130.312 L 67.75 129.375 Q 71.917 99.896 63.063 82.187 Q 40.875 73.979 37.75 82 Z " fill="url(#_lgradient_3)" mask="url(#_mask_IxwK3q5dwW1THHzUZSPrtW3MJlnLNKZw)" vector-effect="non-scaling-stroke" stroke-width="0.104" stroke="rgb(0,0,0)" stroke-opacity="100" stroke-linejoin="miter" stroke-linecap="square" stroke-miterlimit="3"/><mask id="_mask_07hH5ZHziYXKqAMy4yxENjK3kWDIHLNZ" x="-200%" y="-200%" width="400%" height="400%"><rect x="-200%" y="-200%" width="400%" height="400%" style="fill:white;"/><line x1="34.625" y1="62.187" x2="33.063" y2="72.187" fill="black" stroke="none"/></mask><line x1="34.625" y1="62.187" x2="33.063" y2="72.187" mask="url(#_mask_07hH5ZHziYXKqAMy4yxENjK3kWDIHLNZ)" vector-effect="non-scaling-stroke" stroke-width="0.4" stroke="rgb(47,44,44)" stroke-opacity="100" stroke-linejoin="miter" stroke-linecap="square" stroke-miterlimit="3"/><path d=" M 41.188 80 Q 47.906 83.086 47.125 80.312 Q 48.219 79.668 47.75 78.75 Q 49.664 77.861 48.063 77.187 Q 50.826 75.693 45.875 73.437 Q 41.558 73.086 38.063 73.437 Q 35.641 78.555 39 78.75 L 41.188 80 Z " fill="rgb(246,194,147)"/><mask id="_mask_Nsx0FLkagAT9qnrCEl98YzbLPS4zcEl3" x="-200%" y="-200%" width="400%" height="400%"><rect x="-200%" y="-200%" width="400%" height="400%" style="fill:white;"/><path d=" M 47.75 77.187 C 47.278 76.751 46.584 76.517 45.992 76.221" fill="black" stroke="none"/></mask><path d=" M 47.75 77.187 C 47.278 76.751 46.584 76.517 45.992 76.221" fill="none"/><path d=" M 47.75 77.187 C 47.278 76.751 46.584 76.517 45.992 76.221" fill="none" mask="url(#_mask_Nsx0FLkagAT9qnrCEl98YzbLPS4zcEl3)" vector-effect="non-scaling-stroke" stroke-width="0.104" stroke="rgb(230,168,134)" stroke-opacity="100" stroke-linejoin="miter" stroke-linecap="square" stroke-miterlimit="3"/><mask id="_mask_1pQfRH6n5mvoAiPHHvv9FqsiJC7yGBtk" x="-200%" y="-200%" width="400%" height="400%"><rect x="-200%" y="-200%" width="400%" height="400%" style="fill:white;"/><path d=" M 47.75 78.75 C 47.023 78.089 46.267 78.144 45.377 78.067" fill="black" stroke="none"/></mask><path d=" M 47.75 78.75 C 47.023 78.089 46.267 78.144 45.377 78.067" fill="none"/><path d=" M 47.75 78.75 C 47.023 78.089 46.267 78.144 45.377 78.067" fill="none" mask="url(#_mask_1pQfRH6n5mvoAiPHHvv9FqsiJC7yGBtk)" vector-effect="non-scaling-stroke" stroke-width="0.104" stroke="rgb(230,168,134)" stroke-opacity="100" stroke-linejoin="miter" stroke-linecap="square" stroke-miterlimit="3"/><mask id="_mask_G7hVG01JbeXJZSE3nP5JXinpsEM1j3MT" x="-200%" y="-200%" width="400%" height="400%"><rect x="-200%" y="-200%" width="400%" height="400%" style="fill:white;"/><path d=" M 46.813 80.312 C 46.358 79.698 45.765 79.795 45.201 79.517" fill="black" stroke="none"/></mask><path d=" M 46.813 80.312 C 46.358 79.698 45.765 79.795 45.201 79.517" fill="none"/><path d=" M 46.813 80.312 C 46.358 79.698 45.765 79.795 45.201 79.517" fill="none" mask="url(#_mask_G7hVG01JbeXJZSE3nP5JXinpsEM1j3MT)" vector-effect="non-scaling-stroke" stroke-width="0.104" stroke="rgb(230,168,134)" stroke-opacity="100" stroke-linejoin="miter" stroke-linecap="square" stroke-miterlimit="3"/><mask id="_mask_WyI8GsTDmmIXNJLNn82zEiKRtOs0VTud" x="-200%" y="-200%" width="400%" height="400%"><rect x="-200%" y="-200%" width="400%" height="400%" style="fill:white;"/><path d=" M 65.811 79.822 Q 61.891 78.359 63.688 73.75 L 60.875 60.937" fill="black" stroke="none"/></mask><path d=" M 65.811 79.822 Q 61.891 78.359 63.688 73.75 L 60.875 60.937" fill="none"/><path d=" M 65.811 79.822 Q 61.891 78.359 63.688 73.75 L 60.875 60.937" fill="none" mask="url(#_mask_WyI8GsTDmmIXNJLNn82zEiKRtOs0VTud)" vector-effect="non-scaling-stroke" stroke-width="0.4" stroke="rgb(62,55,55)" stroke-opacity="100" stroke-linejoin="miter" stroke-linecap="square" stroke-miterlimit="3"/><mask id="_mask_zp0QA5a5waRN5DlKVGoW8VQSPWhJIoVo" x="-200%" y="-200%" width="400%" height="400%"><rect x="-200%" y="-200%" width="400%" height="400%" style="fill:white;"/><line x1="73.375" y1="60" x2="68.688" y2="64.375" fill="black" stroke="none"/></mask><line x1="73.375" y1="60" x2="68.688" y2="64.375" mask="url(#_mask_zp0QA5a5waRN5DlKVGoW8VQSPWhJIoVo)" vector-effect="non-scaling-stroke" stroke-width="0.4" stroke="rgb(62,55,55)" stroke-opacity="100" stroke-linejoin="miter" stroke-linecap="square" stroke-miterlimit="3"/></g></g></g></svg>