<?xml version="1.0" encoding="UTF-8" standalone="no"?><!-- Generator: Gravit.io --><svg xmlns="http://www.w3.org/2000/svg" xmlns:xlink="http://www.w3.org/1999/xlink" style="isolation:isolate" viewBox="0 0 27 40" width="27pt" height="40pt"><defs><clipPath id="_clipPath_qwG1hiYBDjnk5tVKIU7XWwR5IXaptjqh"><rect width="27" height="40"/></clipPath></defs><g clip-path="url(#_clipPath_qwG1hiYBDjnk5tVKIU7XWwR5IXaptjqh)"><path d=" M 15.787 19 C 10.273 19 5.787 23.486 5.787 29 C 5.787 34.514 10.273 39 15.787 39 C 21.301 39 25.787 34.514 25.787 29 C 25.787 23.486 21.301 19 15.787 19 Z  M 10.222 25.467 C 10.781 24.892 11.694 24.863 12.289 25.4 C 12.875 24.855 13.786 24.869 14.354 25.433 C 14.951 26.025 14.958 26.954 14.372 27.551 L 12.322 29.634 L 10.24 27.584 C 9.954 27.307 9.791 26.927 9.787 26.529 C 9.784 26.131 9.941 25.748 10.222 25.467 Z  M 15.787 35 C 11.787 35 10.787 31 10.787 31 L 20.787 31 C 20.787 31 19.787 35 15.787 35 Z  M 21.372 27.551 L 19.322 29.634 L 17.24 27.584 C 16.954 27.307 16.791 26.927 16.787 26.529 C 16.784 26.131 16.94 25.749 17.221 25.467 C 17.78 24.892 18.694 24.862 19.289 25.4 C 19.875 24.855 20.786 24.869 21.354 25.433 C 21.951 26.024 21.959 26.954 21.372 27.551 Z " fill="rgb(255,153,0)"/><path d=" M 8.223 12.969 C 7.652 12.713 7.003 12.694 6.418 12.918 C 5.871 13.128 5.422 13.536 5.162 14.061 C 4.616 13.846 4.01 13.842 3.463 14.053 C 2.878 14.278 2.407 14.727 2.155 15.301 C 1.62 16.508 2.145 17.875 3.349 18.411 L 7.549 20.281 L 9.419 16.081 C 9.955 14.877 9.431 13.51 8.223 12.969 Z " fill="rgb(223,17,17)"/><path d=" M 17.099 9.488 C 16.798 8.939 16.29 8.533 15.688 8.36 C 15.125 8.199 14.521 8.255 13.997 8.517 C 13.691 8.017 13.209 7.649 12.645 7.488 C 12.043 7.316 11.396 7.391 10.849 7.697 C 9.696 8.34 9.292 9.747 9.932 10.9 L 12.16 14.921 L 16.181 12.692 C 17.334 12.053 17.738 10.646 17.099 9.488 Z " fill="rgb(223,17,17)"/><path d=" M 7.712 2.241 C 7.16 1.945 6.513 1.882 5.914 2.064 C 5.354 2.236 4.878 2.611 4.581 3.117 C 4.052 2.864 3.448 2.818 2.887 2.99 C 2.288 3.174 1.787 3.589 1.495 4.143 C 0.877 5.311 1.306 6.711 2.47 7.329 L 6.529 9.488 L 8.687 5.429 C 9.306 4.265 8.878 2.865 7.712 2.241 Z " fill="rgb(223,17,17)"/><path d=" M 15.259 24.5 C 14.873 24.112 14.349 23.894 13.803 23.894 C 13.29 23.894 12.797 24.086 12.42 24.433 C 12.043 24.086 11.55 23.894 11.038 23.894 C 10.49 23.894 9.966 24.113 9.58 24.502 C 8.766 25.319 8.767 26.598 9.581 27.412 L 12.42 30.251 L 15.259 27.412 C 16.074 26.598 16.074 25.319 15.259 24.5 Z " fill="rgb(223,17,17)"/><path d=" M 22.512 24.5 C 22.127 24.112 21.603 23.894 21.056 23.894 C 20.544 23.894 20.051 24.086 19.674 24.433 C 19.297 24.086 18.803 23.894 18.291 23.894 C 17.744 23.894 17.219 24.113 16.834 24.502 C 16.02 25.319 16.02 26.598 16.835 27.412 L 19.674 30.251 L 22.513 27.412 C 23.327 26.598 23.328 25.319 22.512 24.5 Z " fill="rgb(223,17,17)"/></g></svg>