<?xml version="1.0" encoding="UTF-8" standalone="no"?><!-- Generator: Gravit.io --><svg xmlns="http://www.w3.org/2000/svg" xmlns:xlink="http://www.w3.org/1999/xlink" style="isolation:isolate" viewBox="0 0 1920 1280" width="1920pt" height="1280pt"><defs><clipPath id="_clipPath_FhfNFEgI6bfjBUZMTj1tFA8Irxg7pVHn"><rect width="1920" height="1280"/></clipPath></defs><g clip-path="url(#_clipPath_FhfNFEgI6bfjBUZMTj1tFA8Irxg7pVHn)"><path d=" M 1096 458 C 1093.185 463.067 1090.761 468.21 1088.438 473.438" fill="none" vector-effect="non-scaling-stroke" stroke-width="1" stroke="rgb(0,0,0)" stroke-linejoin="miter" stroke-linecap="square" stroke-miterlimit="3"/><path d=" M 1099 458 C 1097.704 466.101 1094.95 469.47 1091 475" fill="none" vector-effect="non-scaling-stroke" stroke-width="1" stroke="rgb(0,0,0)" stroke-linejoin="miter" stroke-linecap="square" stroke-miterlimit="3"/><path d=" M 1101.99 458 C 1102.561 464.563 1098.878 469.38 1096 475" fill="none" vector-effect="non-scaling-stroke" stroke-width="1" stroke="rgb(0,0,0)" stroke-linejoin="miter" stroke-linecap="square" stroke-miterlimit="3"/><path d=" M 940 556 Q 933.375 551.75 912 550 L 912 550 L 912 550 L 912 550 L 912 550 L 912 550" fill="none" vector-effect="non-scaling-stroke" stroke-width="1" stroke="rgb(0,0,0)" stroke-linejoin="miter" stroke-linecap="square" stroke-miterlimit="3"/><path d=" M 930 515 Q 934.125 544.25 927 553 L 927 553 L 927 553 L 927 553" fill="none" vector-effect="non-scaling-stroke" stroke-width="1" stroke="rgb(0,0,0)" stroke-linejoin="miter" stroke-linecap="square" stroke-miterlimit="3"/><path d=" M 940 583 Q 952.937 579.813 950 575 L 945 572 Q 932.75 573.125 940 556 L 940 556 L 940 556 L 940 556" fill="none" vector-effect="non-scaling-stroke" stroke-width="1" stroke="rgb(0,0,0)" stroke-linejoin="miter" stroke-linecap="square" stroke-miterlimit="3"/><path d=" M 959 458 Q 971.5 471.5 987 460 L 992 448 Q 1004 424 992 410 Q 980 396 973 391 L 957 413 L 955 436 L 953 444 L 957 444 L 959 458 Z " fill="rgb(246,194,147)"/><linearGradient id="_lgradient_1" x1="0.4348298334540184" y1="0.3492647058823528" x2="0.42342505430847227" y2="1.2261029411764706" gradientTransform="matrix(51.557,0,0,84.05,929.443,380.975)" gradientUnits="userSpaceOnUse"><stop offset="0%" stop-opacity="1" style="stop-color:rgb(30,30,30)"/><stop offset="100%" stop-opacity="1" style="stop-color:rgb(0,0,0)"/></linearGradient><path d=" M 959 451 Q 965.25 439.25 961 425 Q 967.5 394.5 977 398 L 981 384 Q 968.5 375.75 950 390 Q 942.75 399.25 942 403 Q 934.25 429.5 930 428 Q 928.25 441.75 932 441 Q 934.75 457 930 456 Q 928 465.5 950 465 Q 959 459.75 955 458 Q 965.75 457.5 957 451" fill="url(#_lgradient_1)"/><linearGradient id="_lgradient_2" x1="0.4348298334540184" y1="0.3492647058823528" x2="0.42342505430847227" y2="1.2261029411764706" gradientTransform="matrix(43,0,0,83.75,977,384)" gradientUnits="userSpaceOnUse"><stop offset="0%" stop-opacity="1" style="stop-color:rgb(30,30,30)"/><stop offset="100%" stop-opacity="1" style="stop-color:rgb(0,0,0)"/></linearGradient><path d=" M 1020 462 Q 1009 453.75 1014 433 L 1008 421 Q 1002 384 979 384 L 977 398 Q 989.25 404 988 413 L 992 433 Q 995 444 987 448 Q 984.5 453.75 988 460 Q 993 468 999 467 Q 1002.75 468.5 1009 467 L 1020 462 Z " fill="url(#_lgradient_2)"/><path d=" M 987 852 Q 982.5 842.375 981 883 L 975 913 Q 978.375 921.625 981 920 Q 987.375 921.25 990 920 Q 1004.25 915.5 1005 910 Q 1006.125 873.625 1002 875 Q 1004.625 855.375 1002 855 L 987 852 Z " fill="rgb(62,55,55)"/><path d=" M 948 755 L 940 768 L 916 855 Q 902.375 873.75 901 852 L 910 773 L 916 751 L 925 732 L 953 739 L 948 755 Z " fill="rgb(246,194,147)"/><path d=" M 990 732 L 1016 724 L 1023 727 L 1020 737 L 1018 755 Q 1027.5 761 1003 855 Q 980 878 987 852 L 990 777 L 990 732 Z " fill="rgb(246,194,147)"/><path d=" M 916 855 Q 920.375 857.5 916 872 Q 909.375 909.875 912 907 Q 912.75 921.25 906 920 L 897 920 Q 887.375 913.75 886 911 Q 882.75 913 888 896 L 900 852 Q 905 873 916 855 Z " fill="rgb(62,55,55)"/><path d=" M 1075 492 L 1075 492 C 1078.863 485.929 1080.208 477.415 1078 473 L 1078 473 C 1075.792 468.585 1075.344 465 1077 465 L 1077 465 C 1078.656 465 1081.461 467.046 1083.261 469.565 L 1083.261 469.565 C 1084.221 470.909 1086.379 468.691 1088.077 464.615 L 1088.217 464.278 C 1089.201 461.917 1091.978 459.368 1094.415 458.59 Q 1108 454.25 1103 469 Q 1098 483.75 1085 508 L 1075 492 Z " fill="rgb(246,194,147)"/><linearGradient id="_lgradient_3" x1="0.4348298334540184" y1="0.3492647058823528" x2="0.42342505430847227" y2="1.2261029411764706" gradientTransform="matrix(197.286,0,0,136,893.714,458)" gradientUnits="userSpaceOnUse"><stop offset="0%" stop-opacity="1" style="stop-color:rgb(30,30,30)"/><stop offset="100%" stop-opacity="1" style="stop-color:rgb(0,0,0)"/></linearGradient><path d=" M 1048.297 517.629 C 1044.215 504.113 1038.983 491.713 1036 485 Q 1026.667 464 996 469 L 987 461 Q 968 470.667 959 458 L 947 469 Q 916.667 465.333 904 501 L 895 540 Q 886 578.667 940 583 L 953 594 L 1014 594 L 1026 575 C 1027.32 575.2 1028.584 575.342 1029.795 575.43 Q 1034.777 579.175 1042.084 573.923 C 1046.714 572.077 1049.796 568.739 1051.686 564.387 Q 1051.842 564.195 1052 564 L 1091 498 Q 1080.125 510.75 1077 488 L 1048.297 517.629 Z " fill-rule="evenodd" fill="url(#_lgradient_3)" vector-effect="non-scaling-stroke" stroke-width="1" stroke="rgb(62,55,55)" stroke-linejoin="miter" stroke-linecap="square" stroke-miterlimit="3"/><path d=" M 950 574.453 Q 949 581 939 583" fill="none" vector-effect="non-scaling-stroke" stroke-width="1" stroke="rgb(62,55,55)" stroke-linejoin="miter" stroke-linecap="square" stroke-miterlimit="3"/><path d=" M 912 550 L 940 553 Q 934 578 945 572 L 950 574.453" fill="none" vector-effect="non-scaling-stroke" stroke-width="1" stroke="rgb(47,44,44)" stroke-linejoin="miter" stroke-linecap="square" stroke-miterlimit="3"/><linearGradient id="_lgradient_4" x1="0.4348298334540184" y1="0.3492647058823528" x2="0.42342505430847227" y2="1.2261029411764706" gradientTransform="matrix(147.267,0,0,182.585,893,573.082)" gradientUnits="userSpaceOnUse"><stop offset="0%" stop-opacity="1" style="stop-color:rgb(30,30,30)"/><stop offset="100%" stop-opacity="1" style="stop-color:rgb(0,0,0)"/></linearGradient><path d=" M 940 587 Q 900 753 893 751 Q 900 758 906 751 Q 905 750 919 749 Q 930.667 759 939 754 Q 958 755 963 751 Q 968.667 754.333 972 749 Q 987 749.333 987 746 Q 1003.667 749 1003 743 Q 1022 744 1024 740 L 1026 737 L 1036 734 Q 1049.333 639.667 1021 583 Q 950 561.333 940 587 Z " fill="url(#_lgradient_4)" vector-effect="non-scaling-stroke" stroke-width="1" stroke="rgb(0,0,0)" stroke-linejoin="miter" stroke-linecap="square" stroke-miterlimit="3"/><line x1="930" y1="519" x2="925" y2="551" vector-effect="non-scaling-stroke" stroke-width="1" stroke="rgb(47,44,44)" stroke-linejoin="miter" stroke-linecap="square" stroke-miterlimit="3"/><path d=" M 951 576 Q 972.5 585.875 970 577 Q 973.5 574.938 972 572 Q 978.125 569.156 973 567 Q 981.844 562.219 966 555 Q 952.187 553.875 941 555 Q 933.25 571.375 944 572 L 951 576 Z " fill="rgb(246,194,147)"/><path d=" M 972 567 C 970.489 565.602 968.268 564.853 966.375 563.906" fill="none" vector-effect="non-scaling-stroke" stroke-width="1" stroke="rgb(230,168,134)" stroke-linejoin="miter" stroke-linecap="square" stroke-miterlimit="3"/><path d=" M 972 572 C 969.675 569.884 967.255 570.06 964.406 569.813" fill="none" vector-effect="non-scaling-stroke" stroke-width="1" stroke="rgb(230,168,134)" stroke-linejoin="miter" stroke-linecap="square" stroke-miterlimit="3"/><path d=" M 969 577 C 967.546 575.033 965.647 575.344 963.844 574.453" fill="none" vector-effect="non-scaling-stroke" stroke-width="1" stroke="rgb(230,168,134)" stroke-linejoin="miter" stroke-linecap="square" stroke-miterlimit="3"/><path d=" M 1029 576 Q 1017.25 570.75 1023 556 L 1014 515" fill="none" vector-effect="non-scaling-stroke" stroke-width="1" stroke="rgb(62,55,55)" stroke-linejoin="miter" stroke-linecap="square" stroke-miterlimit="3"/><line x1="1054" y1="512" x2="1039" y2="526" vector-effect="non-scaling-stroke" stroke-width="1" stroke="rgb(62,55,55)" stroke-linejoin="miter" stroke-linecap="square" stroke-miterlimit="3"/></g></svg>