<?xml version="1.0" encoding="UTF-8" standalone="no"?><!-- Generator: Gravit.io --><svg xmlns="http://www.w3.org/2000/svg" xmlns:xlink="http://www.w3.org/1999/xlink" style="isolation:isolate" viewBox="-25 127 1920 788" width="1920pt" height="788pt"><defs><clipPath id="_clipPath_IN9PjKDl3WInywAcy4U5tfE5Biqe8uf1"><rect x="-25" y="127" width="1920" height="788"/></clipPath></defs><g clip-path="url(#_clipPath_IN9PjKDl3WInywAcy4U5tfE5Biqe8uf1)"><path d=" M -25 179 L 21 210 L 21 240 L 61 251 L 95 292 L 141 292 L 158 323 L 181 323 L 198 351 L 299 351 L 299 376 L 324 376 L 393 449 L 434 449 L 502 510 L 521 510 L 579 554 L 843 554 L 935 498 L 966 438 L 1118 412 L 1150 384 L 1308 384 L 1342 361 L 1410 340 L 1432 283 L 1480 274 L 1511 219 L 1627 210 L 1674 167 L 1793 155 L 1818 127 L 1895 127 L 1895 915 L -25 915 L -25 179 Z " fill="rgb(21,22,42)"/></g></svg>