<?xml version="1.0" encoding="UTF-8" standalone="no"?><!-- Generator: Gravit.io --><svg xmlns="http://www.w3.org/2000/svg" xmlns:xlink="http://www.w3.org/1999/xlink" style="isolation:isolate" viewBox="-25 23.5 1920 946" width="1920pt" height="946pt"><defs><clipPath id="_clipPath_ZFrEkn2WhEKoZNcm0GLGq63y5MiKeU1w"><rect x="-25" y="23.5" width="1920" height="946"/></clipPath></defs><g clip-path="url(#_clipPath_ZFrEkn2WhEKoZNcm0GLGq63y5MiKeU1w)"><path d=" M -25 133.5 L 46 159.5 L 119 246.5 L 215 261.5 L 260 325.5 L 398 343.5 L 490 421.5 L 521 421.5 L 638 513.5 L 764 466.5 L 787 443.5 L 913 432.5 L 956 374.5 L 992 356.5 L 1003 334.5 L 1049 334.5 L 1078 292.5 L 1134 292.5 L 1239 206.5 L 1342 206.5 L 1406 159.5 L 1440 159.5 L 1459 144.5 L 1585 111.5 L 1603 86.5 L 1701 75.5 L 1781 52.5 L 1839 52.5 L 1867 23.5 L 1895 23.5 L 1895 969.5 L -25 969.5 L -25 133.5 Z " fill="rgb(93,52,70)"/></g></svg>