<?xml version="1.0" encoding="UTF-8" standalone="no"?><!-- Generator: Gravit.io --><svg xmlns="http://www.w3.org/2000/svg" xmlns:xlink="http://www.w3.org/1999/xlink" style="isolation:isolate" viewBox="0 0 1920 1280" width="1920pt" height="1280pt"><defs><clipPath id="_clipPath_mzDe69cqg665bIoTPHs61TUJSbKEYtoi"><rect width="1920" height="1280"/></clipPath></defs><g clip-path="url(#_clipPath_mzDe69cqg665bIoTPHs61TUJSbKEYtoi)"><path d=" M 1917.504 13.602 Q 1921.564 4.222 1920 0 L 1 0 L 1 0 L 22 124.5 Q 29.333 345.167 41 37 L 54 124.5 L 54 195.5 L 70 124.5 L 84 195.5 L 84 124.5 L 96.569 88.468 Q 97.916 89.76 99.254 91.046 Q 109.574 470.724 136.278 127.3 Q 161.975 152.975 183.489 176.053 Q 187.161 526.045 214.169 210.088 Q 297.256 305.839 294 348 L 306 346 Q 307.5 312 312 309 Q 316.5 306 320 423 L 326 432 L 333 429 Q 339.5 411.5 339 401 Q 353.5 417.5 363 485 L 371 496 L 377 496 Q 389.5 461 383 452 L 392 463 L 398 533 L 405 551 L 411 543 Q 412.5 523.5 411 512 L 420 602 L 429 618 L 435 602 L 435 460 L 442 480 L 453 485 L 459 477 L 464 387 L 471 429 L 479 440 L 485 429 L 488 387 L 494 368 L 494 401 L 505 405 L 510 398 Q 523.5 356.5 518 346 L 526 353 L 532 348 Q 542 272 629 265 Q 637 376 641 322 Q 645 268 648 265 Q 656 502 670 282 L 670 265 Q 680 427.5 697 212.5 L 1112 212.5 Q 1180 257 1168 246 L 1205 265 L 1249 282 L 1264 296 L 1322 303 L 1330 309 Q 1343 388 1356 316 Q 1370 370 1382 282 Q 1399 329 1405 282 L 1417 274 Q 1425 311 1437 282 Q 1452 358 1461 303 Q 1474 554 1498 309 Q 1512 439 1532 309 L 1543 309 Q 1569 494 1598 316 L 1661 303 L 1679.133 288.938 Q 1701.024 489.253 1706.824 267.463 L 1710 265 Q 1741.888 230.503 1768.944 200.439 Q 1792.679 437.179 1803.78 161.29 Q 1814.2 149.429 1823.689 138.423 L 1823.689 208.538 L 1839.934 132.803 L 1858.5 208.538 L 1858.5 132.803 L 1865.7 88.253 Q 1870.659 82.105 1875.168 76.37 Q 1887.626 354.267 1895.632 132.803 L 1917.504 13.602 Z " fill-rule="evenodd" fill="rgb(154,88,51)"/></g></svg>