<?xml version="1.0" encoding="UTF-8" standalone="no"?><!-- Generator: Gravit.io --><svg xmlns="http://www.w3.org/2000/svg" xmlns:xlink="http://www.w3.org/1999/xlink" style="isolation:isolate" viewBox="0 0 1920 1280" width="1920pt" height="1280pt"><defs><clipPath id="_clipPath_4NY1OoO1JM8SvCoZMB6PuK8KIRYp5Dzg"><rect width="1920" height="1280"/></clipPath></defs><g clip-path="url(#_clipPath_4NY1OoO1JM8SvCoZMB6PuK8KIRYp5Dzg)"><path d=" M 516.717 359 Q 530.717 361 530.717 463 Q 548.717 735 554.717 419 Q 566.717 525 572.717 391 L 582.717 335 Q 596.717 407 604.717 335 Q 608.717 297 640.717 297 L 714.717 292 Q 730.217 373.25 736.717 292 Q 747.467 412.5 754.717 303 L 765.717 283 Q 785.467 421.5 791.717 297 Q 812.717 191 817.717 292 Q 819.467 461 832.717 322 Q 845.967 381 843.717 318 L 854.717 258 Q 855.717 342 867.717 264 L 876.717 209.5 L 885.717 209.5 L 885.717 239 L 891.717 274 L 900.717 268 L 907.717 209.5 L 914.717 248 L 923.717 214 L 932.717 234 L 940.717 214 L 940.717 209.5 L 967.717 209.5 Q 976.467 257.75 984.717 209.5 L 994.717 209.5 Q 992.467 301 1013.717 227 Q 1026.717 225.5 1029.717 274 L 1038.717 264 Q 1037.217 357.75 1050.717 264 L 1061.717 283 L 1056.717 297 Q 1070.967 433.5 1074.717 297 L 1080.717 283 L 1095.717 310 L 1100.717 359 Q 1108.217 460.5 1117.717 342 Q 1124.717 445.75 1138.717 335 Q 1154.717 484 1156.717 350 L 1163.717 335 L 1168.717 310 L 1191.717 335 L 1203.717 406 L 1210.717 406 L 1219.717 335 L 1227.717 328 L 1237.717 359 L 1237.717 384 Q 1253.467 587 1259.717 391 L 1267.717 376 L 1267.717 350 L 1282.717 391 L 1282.717 419 Q 1291.263 756 1318.717 391 L 1380.717 419 L 1394.717 463 L 1408.717 524 L 1426.717 463 L 1438.717 532 L 1448.717 463 L 1448.717 502 L 1461.717 473 L 1480.717 579 L 1489.717 532 Q 1503.445 832.212 1515.717 579 L 1529.717 614 L 1529.717 567 L 1547.717 673 L 1561.717 652 L 1561.717 589 Q 1613.99 700.091 1618.717 644 L 1626.717 699 L 1641.717 730 L 1656.717 764 L 1664.717 799 L 1656.717 842 L 1641.717 876 Q 1577.626 921.485 1618.717 935 Q 1536.475 958.818 1580.717 962 Q 1469.142 984.03 1538.717 1014 L 1598.717 1023 L 1626.717 1064.5 L 1924 1064.5 L 1920 0 L 1 0 L 1 1014 Q 166.717 1037 170.717 962 Q 206.717 965 188.717 901 Q 236.717 903 200.717 853 L 170.717 799 L 170.717 764 Q 190.717 709 170.717 699 L 148.717 673 Q 192.717 623 170.717 589 L 228.717 502 L 240.717 579 L 252.717 463 Q 272.717 637 276.717 437 L 318.717 376 L 516.717 359 Z " fill="rgb(108,62,36)"/></g></svg>