<?xml version="1.0" encoding="UTF-8" standalone="no"?><!-- Generator: Gravit.io --><svg xmlns="http://www.w3.org/2000/svg" xmlns:xlink="http://www.w3.org/1999/xlink" style="isolation:isolate" viewBox="0 0 1920 1280" width="1920pt" height="1280pt"><defs><clipPath id="_clipPath_njSvLRdvbW7J6GCjZySkV3xQFADPq9ep"><rect width="1920" height="1280"/></clipPath></defs><g clip-path="url(#_clipPath_njSvLRdvbW7J6GCjZySkV3xQFADPq9ep)"><linearGradient id="_lgradient_0" x1="0.9649532710280373" y1="0.23772502963636843" x2="0.4918224299065412" y2="2.292145673090177" gradientTransform="matrix(-1920,0,0,678,1920,602)" gradientUnits="userSpaceOnUse"><stop offset="2.5%" stop-opacity="1" style="stop-color:rgb(247,0,0)"/><stop offset="16.666666666666664%" stop-opacity="1" style="stop-color:rgb(253,83,5)"/><stop offset="27.083333333333332%" stop-opacity="1" style="stop-color:rgb(223,161,5)"/><stop offset="44.583333333333336%" stop-opacity="1" style="stop-color:rgb(240,217,13)"/><stop offset="74.16666666666667%" stop-opacity="1" style="stop-color:rgb(242,242,8)"/><stop offset="91.66666666666666%" stop-opacity="1" style="stop-color:rgb(255,255,255)"/></linearGradient><path d=" M 667 1280 L 1920 1280 L 1920 985 Q 1890.5 952.25 1888 940 Q 1882.25 919.75 1888 911 Q 1865.25 921.5 1875 967 Q 1855.25 959.75 1849 940 L 1849 940 Q 1842.5 916.5 1849 903 Q 1849 884.25 1844 885 Q 1832.5 902.5 1832 893 Q 1827 834.75 1782 810 Q 1802.25 902.5 1782 893 Q 1780.25 808.5 1743 792 Q 1677.75 719 1668 733 Q 1705.25 808.25 1684 859 Q 1679.75 838 1651 815 Q 1660.25 745.25 1606 724 Q 1613.75 748 1606 776 Q 1544 722 1606 652 Q 1616 634.5 1606 618 Q 1600.5 630.5 1584 637 Q 1513 669 1529 750 Q 1503 746 1503 733 Q 1497.75 737.438 1503 750 Q 1459 709.5 1464 675 Q 1442.5 742 1469 792 L 1469 827 Q 1431 796.5 1448 720 Q 1453.5 703 1421 684 Q 1401.5 647.5 1428 643 Q 1412.5 624.5 1389 652 Q 1371 660.5 1375 712 L 1378 756 Q 1353.5 714.5 1341 724 Q 1359 827 1319 822 Q 1338.5 750.682 1248 660 Q 1230.545 627.864 1248 602 Q 1198.636 633.227 1215 724 Q 1243.455 803.591 1209 841 L 1184 878 L 1173 827 Q 1192.818 790.409 1153 756 Q 1131.636 740.409 1144 706 Q 1115 709 1130 792 Q 1114.25 771.25 1087 776 Q 1124.75 808 1105 854 Q 1097 834 1069 822 L 1069 822 Q 1057.172 816.094 1053 798 Q 1038.547 809.156 1051 828 Q 1071.625 856.016 1061 865 L 1046 887 Q 1042.5 837.5 1018 831 Q 1015.25 821.75 1026 808 Q 1031 798 1030 789 Q 1029 780 1030 783 L 1007 810 Q 998.75 818.25 1002 835 L 1002 862 L 998 874 L 996 882 Q 996.25 878 979 860 Q 972.25 831.5 976 831 Q 967.25 832.5 970 860 L 972 885 Q 958.5 872.25 953 848 Q 939.25 852.25 955 911 Q 930 916 925 869 Q 918.667 866.667 917 893 Q 901.333 878.667 883 885 Q 906 906.667 893 930 Q 861.333 962.667 869 980 Q 863.333 949.333 844 940 Q 845.333 982.667 831 980 Q 831.333 931.333 799 915 Q 814 974.667 779 973 Q 801.333 923.333 775 911 Q 785.333 928.667 767 940 Q 746 952 743 980 Q 718 944.667 729 930 Q 706 960.667 715 973 L 703 967 Q 710.667 992.667 703 993 C 695.333 993.333 673.333 955.333 685 947 Q 671.333 938.667 673 997 Q 666 999.333 661 993 Q 677.333 1020.667 651 1033 Q 652.667 998 619 997 Q 661.333 1022.667 615 1053 Q 569.5 1056 566 1044 Q 562.5 1032 539 1053 Q 541.75 1067.75 503 1060 Q 528.5 1039.25 517 1033 Q 489.25 1074.75 482 1053 Q 446 1077.5 442 1060 Q 456.75 1038.5 447 1033 L 434 1005 Q 426 1071 414 1044 Q 420.75 1034 408 1024 Q 410 1053 367 1053 L 367 1066 L 347 1060 L 334 1044 L 328 1053 Q 314.25 1042.75 318 1037 Q 306.5 1040 310 1060 Q 304.75 1045.75 290 1037 Q 279.25 1025.75 284 1024 L 284 1024 Q 276.734 1022 280 1051 Q 280 1066 259 1066 Q 258.667 1053.333 249 1053 Q 246.667 1074.667 232 1073 Q 143 1069 154 1073 Q 144.875 1056.75 133 1062 Q 123.125 1065.5 122 1058 Q 119.875 1068.625 95 1073 Q 32.667 1060 0 1085 L 0 1280 L 667 1280" fill="url(#_lgradient_0)"/></g></svg>