<?xml version="1.0" encoding="UTF-8" standalone="no"?><!-- Generator: Gravit.io --><svg xmlns="http://www.w3.org/2000/svg" xmlns:xlink="http://www.w3.org/1999/xlink" style="isolation:isolate" viewBox="0 0 1920 1280" width="1920pt" height="1280pt"><defs><clipPath id="_clipPath_3fN4VS3yByArySFhTwU67w87YDmHHQgZ"><rect width="1920" height="1280"/></clipPath></defs><g clip-path="url(#_clipPath_3fN4VS3yByArySFhTwU67w87YDmHHQgZ)"><g><path d=" M 1218 882 Q 1232.864 912.636 1217 962 L 1341 891 L 1299 882 L 1218 882 Z " fill="rgb(162,160,155)"/><path d=" M 787 792 L 775 867 L 637 819 L 725 792 L 787 792 Z " fill="rgb(162,160,155)"/><path d=" M 1036 899 L 1009 1002 L 866 956 L 884 908 L 1036 899 Z " fill="rgb(162,160,155)"/><linearGradient id="_lgradient_0" x1="0.3345492443981241" y1="0.09316687333962359" x2="0.6242834809796776" y2="3.1780188488539407" gradientTransform="matrix(1919,0,0,494.027,2,785.973)" gradientUnits="userSpaceOnUse"><stop offset="0%" stop-opacity="1" style="stop-color:rgb(230,228,220)"/><stop offset="100%" stop-opacity="1" style="stop-color:rgb(0,0,0)"/></linearGradient><path d=" M 373 806 Q 471.455 775.939 788 791 Q 609.333 821.515 788 835 Q 958.303 849.03 1039 898 Q 752.242 946.727 1039 962 Q 1112.849 960.061 1139 952 Q 1411.151 885.273 1223 879 Q 1570.606 817.212 1605 823 L 1921 806 L 1921 1280 L 2 1279 L 2 929 L 373 806 Z " fill="url(#_lgradient_0)"/></g></g></svg>